<?xml version="1.0" encoding="UTF-8" standalone="no"?>
<!DOCTYPE svg PUBLIC "-//W3C//DTD SVG 1.1//EN" "http://www.w3.org/Graphics/SVG/1.1/DTD/svg11.dtd">
<svg width="100%" height="100%" viewBox="0 0 1000 330" version="1.1" xmlns="http://www.w3.org/2000/svg" xmlns:xlink="http://www.w3.org/1999/xlink" xml:space="preserve" style="fill-rule:evenodd;clip-rule:evenodd;stroke-linejoin:round;stroke-miterlimit:1.41421;">
    <g transform="matrix(1,0,0,1,0,-88.0793)">
        <g id="WebsiteHeader" transform="matrix(0.758788,0,0,0.416938,2489.4,98.4241)">
            <rect x="-3280.75" y="-24.811" width="1317.89" height="791.484" style="fill:none;"/>
            <g transform="matrix(0.76599,0,0,1.39403,-7460.99,368.38)">
                <path d="M5677.34,5.91L5669.53,5.91C5668.29,5.91 5667.11,6.043 5665.99,6.309C5664.87,6.575 5663.88,7.122 5663.02,7.949C5662.16,8.776 5661.5,9.958 5661.03,11.494C5660.55,13.031 5660.32,15.099 5660.32,17.699L5660.32,88.519C5660.32,94.605 5659.45,100.071 5657.7,104.917C5655.96,109.762 5653.24,113.869 5649.55,117.237C5645.86,120.605 5641.14,123.19 5635.41,124.993C5629.68,126.795 5622.85,127.696 5614.94,127.696C5607.02,127.696 5599.94,126.943 5593.71,125.436C5587.47,123.929 5582.2,121.521 5577.89,118.212C5573.57,114.903 5570.28,110.634 5568,105.404C5565.73,100.175 5564.59,93.837 5564.59,86.392L5564.59,16.99C5564.59,14.567 5564.34,12.632 5563.84,11.184C5563.34,9.736 5562.65,8.628 5561.8,7.86C5560.94,7.092 5559.97,6.575 5558.87,6.309C5557.78,6.043 5556.61,5.91 5555.37,5.91L5547.57,5.91L5547.57,-3.662L5610.15,-3.662L5610.15,5.91L5602.53,5.91C5601.29,5.91 5600.1,6.043 5598.98,6.309C5597.86,6.575 5596.87,7.122 5596.01,7.949C5595.15,8.776 5594.49,9.958 5594.02,11.494C5593.55,13.031 5593.31,15.099 5593.31,17.699L5593.31,87.81C5593.31,92.892 5593.94,97.161 5595.21,100.618C5596.48,104.074 5598.3,106.852 5600.66,108.949C5603.03,111.047 5605.86,112.554 5609.17,113.47C5612.48,114.386 5616.21,114.844 5620.34,114.844C5624.36,114.844 5627.99,114.327 5631.24,113.293C5634.49,112.259 5637.26,110.648 5639.53,108.462C5641.81,106.276 5643.57,103.498 5644.81,100.13C5646.05,96.762 5646.67,92.773 5646.67,88.164L5646.67,16.99C5646.67,14.567 5646.43,12.632 5645.96,11.184C5645.48,9.736 5644.82,8.628 5643.96,7.86C5643.11,7.092 5642.12,6.575 5640.99,6.309C5639.87,6.043 5638.69,5.91 5637.45,5.91L5629.83,5.91L5629.83,-3.662L5677.34,-3.662L5677.34,5.91Z" style="fill:none;"/>
                <path d="M5847.95,-2.422L5873.03,66.892C5874.1,69.728 5875.09,72.609 5876,75.534C5876.92,78.459 5877.76,81.251 5878.53,83.91C5879.3,86.569 5879.98,89.021 5880.57,91.267C5881.16,93.512 5881.6,95.432 5881.9,97.028C5882.37,94.842 5882.87,92.419 5883.4,89.76C5883.94,87.101 5884.51,84.309 5885.13,81.384C5885.75,78.459 5886.4,75.46 5887.08,72.387C5887.76,69.314 5888.45,66.33 5889.16,63.435L5898.74,24.258C5898.91,23.549 5899.11,22.721 5899.31,21.776C5899.52,20.831 5899.71,19.9 5899.89,18.984C5900.07,18.068 5900.2,17.211 5900.29,16.414C5900.38,15.616 5900.42,14.981 5900.42,14.508C5900.42,11.376 5899.49,9.16 5897.63,7.86C5895.77,6.56 5892.83,5.91 5888.81,5.91L5884.64,5.91L5884.64,-3.662L5931.98,-3.662L5931.98,5.91L5928.52,5.91C5926.75,5.91 5925.18,6.087 5923.82,6.442C5922.46,6.797 5921.25,7.491 5920.19,8.525C5919.12,9.559 5918.16,10.992 5917.31,12.824C5916.45,14.656 5915.61,17.078 5914.78,20.092L5886.59,125.923L5865.94,125.923L5835.45,40.744L5809.3,125.923L5786.79,125.923L5753.55,15.572C5753.02,13.681 5752.37,12.115 5751.6,10.874C5750.83,9.633 5749.93,8.643 5748.9,7.905C5747.86,7.166 5746.68,6.649 5745.35,6.353C5744.02,6.058 5742.47,5.91 5740.7,5.91L5738.31,5.91L5738.31,-3.662L5798.93,-3.662L5798.93,5.91L5794.77,5.91C5791.1,5.91 5788.37,6.619 5786.57,8.037C5784.77,9.456 5783.86,11.672 5783.86,14.685C5783.86,15.69 5784.06,17.152 5784.44,19.073C5784.82,20.993 5785.25,22.781 5785.73,24.435L5797.87,66.36C5798.52,68.664 5799.21,71.161 5799.95,73.85C5800.69,76.538 5801.39,79.256 5802.03,82.004C5802.69,84.752 5803.28,87.396 5803.81,89.937C5804.34,92.478 5804.72,94.723 5804.96,96.673C5805.79,92.773 5806.69,89.125 5807.66,85.727C5808.64,82.329 5809.66,78.858 5810.72,75.312L5834.65,-2.422L5847.95,-2.422Z" style="fill:none;"/>
                <path d="M6066.65,60.953C6066.65,70.939 6065.31,80.039 6062.62,88.253C6059.93,96.467 6055.97,103.498 6050.74,109.348C6045.51,115.198 6039.1,119.719 6031.51,122.91C6023.91,126.101 6015.19,127.696 6005.32,127.696C5994.98,127.696 5985.95,126.101 5978.24,122.91C5970.53,119.719 5964.13,115.198 5959.05,109.348C5953.97,103.498 5950.15,96.452 5947.61,88.209C5945.07,79.966 5943.8,70.821 5943.8,60.776C5943.8,50.73 5945.07,41.616 5947.61,33.432C5950.15,25.248 5953.98,18.26 5959.09,12.469C5964.2,6.678 5970.62,2.202 5978.33,-0.959C5986.04,-4.12 5995.09,-5.701 6005.49,-5.701C6015.3,-5.701 6024,-4.12 6031.6,-0.959C6039.19,2.202 6045.59,6.693 6050.79,12.514C6055.99,18.334 6059.93,25.336 6062.62,33.52C6065.31,41.704 6066.65,50.849 6066.65,60.953ZM5974.29,60.953C5974.29,69.639 5974.86,77.38 5975.98,84.176C5977.1,90.971 5978.9,96.718 5981.39,101.415C5983.87,106.113 5987.07,109.703 5991,112.185C5994.93,114.666 5999.7,115.907 6005.32,115.907C6010.99,115.907 6015.79,114.666 6019.72,112.185C6023.65,109.703 6026.83,106.113 6029.25,101.415C6031.67,96.718 6033.43,90.971 6034.52,84.176C6035.61,77.38 6036.16,69.639 6036.16,60.953C6036.16,52.267 6035.61,44.526 6034.52,37.73C6033.43,30.935 6031.67,25.189 6029.25,20.491C6026.83,15.793 6023.66,12.218 6019.76,9.766C6015.86,7.314 6011.11,6.087 6005.49,6.087C5999.82,6.087 5995.01,7.314 5991.05,9.766C5987.09,12.218 5983.87,15.793 5981.39,20.491C5978.9,25.189 5977.1,30.935 5975.98,37.73C5974.86,44.526 5974.29,52.267 5974.29,60.953Z" style="fill:none;"/>
                <path d="M6087.17,116.262L6094.79,116.262C6096.03,116.262 6097.21,116.144 6098.34,115.907C6099.46,115.671 6100.45,115.184 6101.3,114.445C6102.16,113.706 6102.84,112.613 6103.34,111.165C6103.85,109.718 6104.1,107.812 6104.1,105.448L6104.1,16.99C6104.1,14.567 6103.85,12.632 6103.34,11.184C6102.84,9.736 6102.16,8.628 6101.3,7.86C6100.45,7.092 6099.46,6.575 6098.34,6.309C6097.21,6.043 6096.03,5.91 6094.79,5.91L6087.17,5.91L6087.17,-3.662L6145.67,-3.662C6162.8,-3.662 6175.37,-0.797 6183.38,4.935C6191.39,10.667 6195.39,18.999 6195.39,29.931C6195.39,34.717 6194.68,38.971 6193.26,42.694C6191.85,46.417 6189.97,49.667 6187.64,52.444C6185.3,55.221 6182.66,57.57 6179.7,59.491C6176.75,61.411 6173.73,62.992 6170.66,64.233L6192.29,101.46C6193.82,104.06 6195.32,106.29 6196.77,108.152C6198.21,110.013 6199.66,111.549 6201.11,112.761C6202.56,113.972 6204.05,114.859 6205.58,115.42C6207.12,115.981 6208.75,116.262 6210.46,116.262L6211.17,116.262L6211.17,125.923L6205.23,125.923C6199.79,125.923 6195.05,125.716 6191,125.303C6186.96,124.889 6183.41,124.077 6180.37,122.865C6177.32,121.654 6174.69,119.985 6172.48,117.857C6170.26,115.73 6168.21,112.982 6166.32,109.614L6144.78,69.639L6132.73,69.639L6132.73,105.448C6132.73,107.812 6132.98,109.718 6133.48,111.165C6133.98,112.613 6134.66,113.706 6135.52,114.445C6136.37,115.184 6137.36,115.671 6138.49,115.907C6139.61,116.144 6140.79,116.262 6142.03,116.262L6149.83,116.262L6149.83,125.923L6087.17,125.923L6087.17,116.262ZM6132.73,59.092L6142.92,59.092C6147.11,59.092 6150.61,58.53 6153.42,57.408C6156.23,56.285 6158.47,54.616 6160.16,52.4C6161.84,50.184 6163.05,47.407 6163.79,44.068C6164.53,40.729 6164.9,36.844 6164.9,32.412C6164.9,27.803 6164.49,23.903 6163.66,20.712C6162.83,17.522 6161.53,14.907 6159.76,12.868C6157.99,10.829 6155.68,9.352 6152.85,8.436C6150.01,7.52 6146.58,7.062 6142.56,7.062L6132.73,7.062L6132.73,59.092Z" style="fill:none;"/>
                <path d="M6294.7,29.31C6296.65,27.242 6298.29,25.366 6299.62,23.682C6300.95,21.998 6302.02,20.432 6302.81,18.984C6303.61,17.536 6304.19,16.162 6304.54,14.862C6304.9,13.562 6305.07,12.292 6305.07,11.051C6305.07,9.042 6304.3,7.653 6302.77,6.885C6301.23,6.117 6298.6,5.733 6294.88,5.733L6294.88,-3.662L6344.07,-3.662L6344.07,5.733C6341.59,5.733 6339.24,6.117 6337.03,6.885C6334.81,7.653 6332.64,8.747 6330.51,10.165C6328.38,11.583 6326.29,13.267 6324.22,15.217C6322.15,17.167 6320.05,19.324 6317.93,21.687L6293.99,48.012L6327.76,101.637C6329.54,104.473 6331.24,106.822 6332.86,108.684C6334.49,110.545 6336.12,112.037 6337.78,113.16C6339.43,114.282 6341.12,115.08 6342.83,115.553C6344.55,116.026 6346.41,116.262 6348.42,116.262L6349.12,116.262L6349.12,125.923L6339.38,125.923C6334.77,125.923 6330.72,125.776 6327.23,125.48C6323.74,125.185 6320.69,124.741 6318.06,124.151C6315.43,123.56 6313.17,122.806 6311.28,121.89C6309.39,120.974 6307.73,119.896 6306.31,118.655C6304.9,117.414 6303.61,116.011 6302.46,114.445C6301.31,112.879 6300.17,111.151 6299.05,109.26L6274.58,67.512L6266.52,73.805L6266.52,104.473C6266.52,107.073 6266.77,109.142 6267.27,110.678C6267.77,112.214 6268.44,113.396 6269.26,114.223C6270.09,115.051 6271.1,115.597 6272.28,115.863C6273.46,116.129 6274.7,116.262 6276,116.262L6283.62,116.262L6283.62,125.923L6220.96,125.923L6220.96,116.262L6228.58,116.262C6229.88,116.262 6231.09,116.144 6232.21,115.907C6233.34,115.671 6234.33,115.184 6235.18,114.445C6236.04,113.706 6236.7,112.613 6237.18,111.165C6237.65,109.718 6237.89,107.812 6237.89,105.448L6237.89,16.99C6237.89,14.567 6237.65,12.632 6237.18,11.184C6236.7,9.736 6236.04,8.628 6235.18,7.86C6234.33,7.092 6233.34,6.575 6232.21,6.309C6231.09,6.043 6229.88,5.91 6228.58,5.91L6220.96,5.91L6220.96,-3.662L6283.62,-3.662L6283.62,5.91L6276,5.91C6274.7,5.91 6273.46,6.043 6272.28,6.309C6271.1,6.575 6270.09,7.122 6269.26,7.949C6268.44,8.776 6267.77,9.958 6267.27,11.494C6266.77,13.031 6266.52,15.099 6266.52,17.699L6266.52,60.067L6294.7,29.31Z" style="fill:none;"/>
                <path d="M6486.32,92.153L6486.32,103.232C6486.32,106.069 6486.72,108.344 6487.52,110.057C6488.32,111.771 6489.38,113.086 6490.71,114.002C6492.04,114.918 6493.62,115.523 6495.45,115.819C6497.28,116.114 6499.2,116.262 6501.21,116.262L6503.52,116.262L6503.52,125.923L6439.88,125.923L6439.88,116.262L6444.93,116.262C6447,116.262 6448.93,116.114 6450.74,115.819C6452.54,115.523 6454.1,114.918 6455.43,114.002C6456.76,113.086 6457.83,111.771 6458.62,110.057C6459.42,108.344 6459.82,106.069 6459.82,103.232L6459.82,92.153L6409.56,92.153L6409.56,81.073L6461.06,-3.662L6486.32,-3.662L6486.32,80.187L6505.2,80.187L6505.2,92.153L6486.32,92.153ZM6459.82,48.455C6459.82,43.137 6459.91,37.405 6460.09,31.26C6460.26,25.115 6460.59,19.206 6461.06,13.533C6460.47,14.951 6459.53,16.901 6458.23,19.383C6456.93,21.865 6455.54,24.42 6454.06,27.05C6452.58,29.679 6451.16,32.161 6449.81,34.495C6448.44,36.829 6447.41,38.558 6446.7,39.68L6422.24,80.187L6459.82,80.187L6459.82,48.455Z" style="fill:none;"/>
                <path d="M6699.39,5.91L6691.59,5.91C6690.35,5.91 6689.17,6.043 6688.05,6.309C6686.93,6.575 6685.94,7.122 6685.08,7.949C6684.22,8.776 6683.56,9.958 6683.08,11.494C6682.61,13.031 6682.38,15.099 6682.38,17.699L6682.38,88.519C6682.38,94.605 6681.5,100.071 6679.76,104.917C6678.02,109.762 6675.3,113.869 6671.61,117.237C6667.91,120.605 6663.2,123.19 6657.47,124.993C6651.74,126.795 6644.91,127.696 6636.99,127.696C6629.07,127.696 6622,126.943 6615.77,125.436C6609.53,123.929 6604.26,121.521 6599.94,118.212C6595.63,114.903 6592.34,110.634 6590.06,105.404C6587.78,100.175 6586.65,93.837 6586.65,86.392L6586.65,16.99C6586.65,14.567 6586.4,12.632 6585.89,11.184C6585.39,9.736 6584.71,8.628 6583.86,7.86C6583,7.092 6582.02,6.575 6580.93,6.309C6579.84,6.043 6578.67,5.91 6577.43,5.91L6569.63,5.91L6569.63,-3.662L6632.21,-3.662L6632.21,5.91L6624.58,5.91C6623.34,5.91 6622.16,6.043 6621.04,6.309C6619.92,6.575 6618.93,7.122 6618.07,7.949C6617.21,8.776 6616.55,9.958 6616.07,11.494C6615.6,13.031 6615.37,15.099 6615.37,17.699L6615.37,87.81C6615.37,92.892 6616,97.161 6617.27,100.618C6618.54,104.074 6620.36,106.852 6622.72,108.949C6625.09,111.047 6627.92,112.554 6631.23,113.47C6634.54,114.386 6638.26,114.844 6642.4,114.844C6646.42,114.844 6650.05,114.327 6653.3,113.293C6656.55,112.259 6659.31,110.648 6661.59,108.462C6663.86,106.276 6665.62,103.498 6666.86,100.13C6668.1,96.762 6668.73,92.773 6668.73,88.164L6668.73,16.99C6668.73,14.567 6668.49,12.632 6668.02,11.184C6667.54,9.736 6666.88,8.628 6666.02,7.86C6665.16,7.092 6664.18,6.575 6663.05,6.309C6661.93,6.043 6660.75,5.91 6659.51,5.91L6651.88,5.91L6651.88,-3.662L6699.39,-3.662L6699.39,5.91Z" style="fill:none;"/>
                <path d="M6781.42,104.473C6781.42,107.073 6781.66,109.142 6782.13,110.678C6782.6,112.214 6783.27,113.396 6784.12,114.223C6784.98,115.051 6785.97,115.597 6787.09,115.863C6788.22,116.129 6789.43,116.262 6790.73,116.262L6798.35,116.262L6798.35,125.923L6735.68,125.923L6735.68,116.262L6743.31,116.262C6744.67,116.262 6745.91,116.129 6747.03,115.863C6748.15,115.597 6749.13,115.051 6749.95,114.223C6750.78,113.396 6751.43,112.214 6751.9,110.678C6752.38,109.142 6752.61,107.073 6752.61,104.473L6752.61,7.417L6738.08,7.417C6735.36,7.417 6733.08,7.712 6731.25,8.303C6729.42,8.894 6727.93,9.736 6726.78,10.829C6725.62,11.923 6724.77,13.267 6724.2,14.862C6723.64,16.458 6723.24,18.26 6723.01,20.269L6721.77,31.526L6709.54,31.526L6710.51,-3.662L6823.61,-3.662L6824.5,31.526L6812.35,31.526L6811.02,20.269C6810.79,18.26 6810.39,16.458 6809.83,14.862C6809.27,13.267 6808.41,11.923 6807.26,10.829C6806.11,9.736 6804.61,8.894 6802.78,8.303C6800.95,7.712 6798.67,7.417 6795.96,7.417L6781.42,7.417L6781.42,104.473Z" style="fill:none;"/>
                <path d="M6860.35,83.289L6855.11,98.889C6854.64,100.367 6854.15,102.095 6853.65,104.074C6853.15,106.054 6852.9,107.782 6852.9,109.26C6852.9,110.442 6853.14,111.476 6853.61,112.362C6854.08,113.248 6854.7,113.972 6855.47,114.534C6856.24,115.095 6857.11,115.523 6858.09,115.819C6859.06,116.114 6860.08,116.262 6861.14,116.262L6868.77,116.262L6868.77,125.923L6821.52,125.923L6821.52,116.262L6823.74,116.262C6825.33,116.262 6826.8,116.085 6828.13,115.73C6829.45,115.376 6830.7,114.711 6831.85,113.736C6833,112.761 6834.09,111.417 6835.13,109.703C6836.16,107.989 6837.21,105.773 6838.28,103.055L6877.63,-3.662L6902.54,-3.662L6940.47,103.232C6941.36,105.773 6942.29,107.886 6943.26,109.57C6944.24,111.254 6945.3,112.584 6946.45,113.559C6947.61,114.534 6948.83,115.228 6950.13,115.641C6951.43,116.055 6952.79,116.262 6954.21,116.262L6957.49,116.262L6957.49,125.923L6897.57,125.923L6897.57,116.262L6904.66,116.262C6905.55,116.262 6906.47,116.129 6907.41,115.863C6908.36,115.597 6909.2,115.184 6909.94,114.622C6910.68,114.061 6911.28,113.337 6911.75,112.451C6912.23,111.564 6912.46,110.501 6912.46,109.26C6912.46,107.782 6912.29,106.364 6911.93,105.005C6911.58,103.646 6911.22,102.464 6910.87,101.46L6904.49,83.289L6860.35,83.289ZM6891.28,42.428C6890.63,40.36 6889.96,38.188 6889.28,35.913C6888.61,33.638 6887.93,31.319 6887.25,28.956C6886.57,26.592 6885.92,24.243 6885.3,21.909C6884.68,19.575 6884.13,17.344 6883.66,15.217C6883.12,17.049 6882.5,19.058 6881.8,21.244C6881.09,23.431 6880.33,25.676 6879.53,27.981C6878.74,30.285 6877.94,32.59 6877.14,34.894C6876.34,37.199 6875.59,39.415 6874.88,41.542L6864.16,72.21L6900.85,72.21L6891.28,42.428Z" style="fill:none;"/>
                <path d="M7043.86,125.923L7043.86,116.262L7051.66,116.262C7052.96,116.262 7054.17,116.129 7055.29,115.863C7056.42,115.597 7057.41,115.051 7058.26,114.223C7059.12,113.396 7059.78,112.214 7060.26,110.678C7060.73,109.142 7060.97,107.073 7060.97,104.473L7060.97,63.878L7013.55,63.878L7013.55,104.473C7013.55,107.073 7013.8,109.142 7014.3,110.678C7014.8,112.214 7015.47,113.396 7016.3,114.223C7017.12,115.051 7018.1,115.597 7019.22,115.863C7020.34,116.129 7021.55,116.262 7022.85,116.262L7030.65,116.262L7030.65,125.923L6967.99,125.923L6967.99,116.262L6975.61,116.262C6976.91,116.262 6978.12,116.129 6979.24,115.863C6980.37,115.597 6981.36,115.051 6982.21,114.223C6983.07,113.396 6983.74,112.214 6984.21,110.678C6984.68,109.142 6984.92,107.073 6984.92,104.473L6984.92,17.078C6984.92,14.656 6984.67,12.72 6984.16,11.273C6983.66,9.825 6982.98,8.717 6982.12,7.949C6981.27,7.181 6980.28,6.664 6979.16,6.398C6978.03,6.132 6976.85,5.999 6975.61,5.999L6967.99,5.999L6967.99,-3.662L7030.65,-3.662L7030.65,5.999L7022.85,5.999C7021.55,5.999 7020.34,6.132 7019.22,6.398C7018.1,6.664 7017.12,7.21 7016.3,8.037C7015.47,8.865 7014.8,10.047 7014.3,11.583C7013.8,13.119 7013.55,15.187 7013.55,17.787L7013.55,52.799L7060.97,52.799L7060.97,17.787C7060.97,15.187 7060.73,13.119 7060.26,11.583C7059.78,10.047 7059.12,8.865 7058.26,8.037C7057.41,7.21 7056.42,6.664 7055.29,6.398C7054.17,6.132 7052.96,5.999 7051.66,5.999L7043.86,5.999L7043.86,-3.662L7106.53,-3.662L7106.53,5.999L7098.9,5.999C7097.66,5.999 7096.48,6.132 7095.36,6.398C7094.24,6.664 7093.24,7.21 7092.39,8.037C7091.53,8.865 7090.87,10.047 7090.39,11.583C7089.92,13.119 7089.69,15.187 7089.69,17.787L7089.69,105.448C7089.69,107.812 7089.94,109.718 7090.44,111.165C7090.94,112.613 7091.62,113.706 7092.48,114.445C7093.33,115.184 7094.31,115.671 7095.4,115.907C7096.49,116.144 7097.66,116.262 7098.9,116.262L7106.53,116.262L7106.53,125.923L7043.86,125.923Z" style="fill:none;"/>
                <path d="M5677.34,5.91L5669.53,5.91C5668.29,5.91 5667.11,6.043 5665.99,6.309C5664.87,6.575 5663.88,7.122 5663.02,7.949C5662.16,8.776 5661.5,9.958 5661.03,11.494C5660.55,13.031 5660.32,15.099 5660.32,17.699L5660.32,88.519C5660.32,94.605 5659.45,100.071 5657.7,104.917C5655.96,109.762 5653.24,113.869 5649.55,117.237C5645.86,120.605 5641.14,123.19 5635.41,124.993C5629.68,126.795 5622.85,127.696 5614.94,127.696C5607.02,127.696 5599.94,126.943 5593.71,125.436C5587.47,123.929 5582.2,121.521 5577.89,118.212C5573.57,114.903 5570.28,110.634 5568,105.404C5565.73,100.175 5564.59,93.837 5564.59,86.392L5564.59,16.99C5564.59,14.567 5564.34,12.632 5563.84,11.184C5563.34,9.736 5562.65,8.628 5561.8,7.86C5560.94,7.092 5559.97,6.575 5558.87,6.309C5557.78,6.043 5556.61,5.91 5555.37,5.91L5547.57,5.91L5547.57,-3.662L5610.15,-3.662L5610.15,5.91L5602.53,5.91C5601.29,5.91 5600.1,6.043 5598.98,6.309C5597.86,6.575 5596.87,7.122 5596.01,7.949C5595.15,8.776 5594.49,9.958 5594.02,11.494C5593.55,13.031 5593.31,15.099 5593.31,17.699L5593.31,87.81C5593.31,92.892 5593.94,97.161 5595.21,100.618C5596.48,104.074 5598.3,106.852 5600.66,108.949C5603.03,111.047 5605.86,112.554 5609.17,113.47C5612.48,114.386 5616.21,114.844 5620.34,114.844C5624.36,114.844 5627.99,114.327 5631.24,113.293C5634.49,112.259 5637.26,110.648 5639.53,108.462C5641.81,106.276 5643.57,103.498 5644.81,100.13C5646.05,96.762 5646.67,92.773 5646.67,88.164L5646.67,16.99C5646.67,14.567 5646.43,12.632 5645.96,11.184C5645.48,9.736 5644.82,8.628 5643.96,7.86C5643.11,7.092 5642.12,6.575 5640.99,6.309C5639.87,6.043 5638.69,5.91 5637.45,5.91L5629.83,5.91L5629.83,-3.662L5677.34,-3.662L5677.34,5.91Z" style="fill:rgb(5,13,64);fill-rule:nonzero;"/>
                <path d="M5847.95,-2.422L5873.03,66.892C5874.1,69.728 5875.09,72.609 5876,75.534C5876.92,78.459 5877.76,81.251 5878.53,83.91C5879.3,86.569 5879.98,89.021 5880.57,91.267C5881.16,93.512 5881.6,95.432 5881.9,97.028C5882.37,94.842 5882.87,92.419 5883.4,89.76C5883.94,87.101 5884.51,84.309 5885.13,81.384C5885.75,78.459 5886.4,75.46 5887.08,72.387C5887.76,69.314 5888.45,66.33 5889.16,63.435L5898.74,24.258C5898.91,23.549 5899.11,22.721 5899.31,21.776C5899.52,20.831 5899.71,19.9 5899.89,18.984C5900.07,18.068 5900.2,17.211 5900.29,16.414C5900.38,15.616 5900.42,14.981 5900.42,14.508C5900.42,11.376 5899.49,9.16 5897.63,7.86C5895.77,6.56 5892.83,5.91 5888.81,5.91L5884.64,5.91L5884.64,-3.662L5931.98,-3.662L5931.98,5.91L5928.52,5.91C5926.75,5.91 5925.18,6.087 5923.82,6.442C5922.46,6.797 5921.25,7.491 5920.19,8.525C5919.12,9.559 5918.16,10.992 5917.31,12.824C5916.45,14.656 5915.61,17.078 5914.78,20.092L5886.59,125.923L5865.94,125.923L5835.45,40.744L5809.3,125.923L5786.79,125.923L5753.55,15.572C5753.02,13.681 5752.37,12.115 5751.6,10.874C5750.83,9.633 5749.93,8.643 5748.9,7.905C5747.86,7.166 5746.68,6.649 5745.35,6.353C5744.02,6.058 5742.47,5.91 5740.7,5.91L5738.31,5.91L5738.31,-3.662L5798.93,-3.662L5798.93,5.91L5794.77,5.91C5791.1,5.91 5788.37,6.619 5786.57,8.037C5784.77,9.456 5783.86,11.672 5783.86,14.685C5783.86,15.69 5784.06,17.152 5784.44,19.073C5784.82,20.993 5785.25,22.781 5785.73,24.435L5797.87,66.36C5798.52,68.664 5799.21,71.161 5799.95,73.85C5800.69,76.538 5801.39,79.256 5802.03,82.004C5802.69,84.752 5803.28,87.396 5803.81,89.937C5804.34,92.478 5804.72,94.723 5804.96,96.673C5805.79,92.773 5806.69,89.125 5807.66,85.727C5808.64,82.329 5809.66,78.858 5810.72,75.312L5834.65,-2.422L5847.95,-2.422Z" style="fill:rgb(5,13,64);fill-rule:nonzero;"/>
                <path d="M6066.65,60.953C6066.65,70.939 6065.31,80.039 6062.62,88.253C6059.93,96.467 6055.97,103.498 6050.74,109.348C6045.51,115.198 6039.1,119.719 6031.51,122.91C6023.91,126.101 6015.19,127.696 6005.32,127.696C5994.98,127.696 5985.95,126.101 5978.24,122.91C5970.53,119.719 5964.13,115.198 5959.05,109.348C5953.97,103.498 5950.15,96.452 5947.61,88.209C5945.07,79.966 5943.8,70.821 5943.8,60.776C5943.8,50.73 5945.07,41.616 5947.61,33.432C5950.15,25.248 5953.98,18.26 5959.09,12.469C5964.2,6.678 5970.62,2.202 5978.33,-0.959C5986.04,-4.12 5995.09,-5.701 6005.49,-5.701C6015.3,-5.701 6024,-4.12 6031.6,-0.959C6039.19,2.202 6045.59,6.693 6050.79,12.514C6055.99,18.334 6059.93,25.336 6062.62,33.52C6065.31,41.704 6066.65,50.849 6066.65,60.953ZM5974.29,60.953C5974.29,69.639 5974.86,77.38 5975.98,84.176C5977.1,90.971 5978.9,96.718 5981.39,101.415C5983.87,106.113 5987.07,109.703 5991,112.185C5994.93,114.666 5999.7,115.907 6005.32,115.907C6010.99,115.907 6015.79,114.666 6019.72,112.185C6023.65,109.703 6026.83,106.113 6029.25,101.415C6031.67,96.718 6033.43,90.971 6034.52,84.176C6035.61,77.38 6036.16,69.639 6036.16,60.953C6036.16,52.267 6035.61,44.526 6034.52,37.73C6033.43,30.935 6031.67,25.189 6029.25,20.491C6026.83,15.793 6023.66,12.218 6019.76,9.766C6015.86,7.314 6011.11,6.087 6005.49,6.087C5999.82,6.087 5995.01,7.314 5991.05,9.766C5987.09,12.218 5983.87,15.793 5981.39,20.491C5978.9,25.189 5977.1,30.935 5975.98,37.73C5974.86,44.526 5974.29,52.267 5974.29,60.953Z" style="fill:rgb(5,13,64);fill-rule:nonzero;"/>
                <path d="M6087.17,116.262L6094.79,116.262C6096.03,116.262 6097.21,116.144 6098.34,115.907C6099.46,115.671 6100.45,115.184 6101.3,114.445C6102.16,113.706 6102.84,112.613 6103.34,111.165C6103.85,109.718 6104.1,107.812 6104.1,105.448L6104.1,16.99C6104.1,14.567 6103.85,12.632 6103.34,11.184C6102.84,9.736 6102.16,8.628 6101.3,7.86C6100.45,7.092 6099.46,6.575 6098.34,6.309C6097.21,6.043 6096.03,5.91 6094.79,5.91L6087.17,5.91L6087.17,-3.662L6145.67,-3.662C6162.8,-3.662 6175.37,-0.797 6183.38,4.935C6191.39,10.667 6195.39,18.999 6195.39,29.931C6195.39,34.717 6194.68,38.971 6193.26,42.694C6191.85,46.417 6189.97,49.667 6187.64,52.444C6185.3,55.221 6182.66,57.57 6179.7,59.491C6176.75,61.411 6173.73,62.992 6170.66,64.233L6192.29,101.46C6193.82,104.06 6195.32,106.29 6196.77,108.152C6198.21,110.013 6199.66,111.549 6201.11,112.761C6202.56,113.972 6204.05,114.859 6205.58,115.42C6207.12,115.981 6208.75,116.262 6210.46,116.262L6211.17,116.262L6211.17,125.923L6205.23,125.923C6199.79,125.923 6195.05,125.716 6191,125.303C6186.96,124.889 6183.41,124.077 6180.37,122.865C6177.32,121.654 6174.69,119.985 6172.48,117.857C6170.26,115.73 6168.21,112.982 6166.32,109.614L6144.78,69.639L6132.73,69.639L6132.73,105.448C6132.73,107.812 6132.98,109.718 6133.48,111.165C6133.98,112.613 6134.66,113.706 6135.52,114.445C6136.37,115.184 6137.36,115.671 6138.49,115.907C6139.61,116.144 6140.79,116.262 6142.03,116.262L6149.83,116.262L6149.83,125.923L6087.17,125.923L6087.17,116.262ZM6132.73,59.092L6142.92,59.092C6147.11,59.092 6150.61,58.53 6153.42,57.408C6156.23,56.285 6158.47,54.616 6160.16,52.4C6161.84,50.184 6163.05,47.407 6163.79,44.068C6164.53,40.729 6164.9,36.844 6164.9,32.412C6164.9,27.803 6164.49,23.903 6163.66,20.712C6162.83,17.522 6161.53,14.907 6159.76,12.868C6157.99,10.829 6155.68,9.352 6152.85,8.436C6150.01,7.52 6146.58,7.062 6142.56,7.062L6132.73,7.062L6132.73,59.092Z" style="fill:rgb(5,13,64);fill-rule:nonzero;"/>
                <path d="M6294.7,29.31C6296.65,27.242 6298.29,25.366 6299.62,23.682C6300.95,21.998 6302.02,20.432 6302.81,18.984C6303.61,17.536 6304.19,16.162 6304.54,14.862C6304.9,13.562 6305.07,12.292 6305.07,11.051C6305.07,9.042 6304.3,7.653 6302.77,6.885C6301.23,6.117 6298.6,5.733 6294.88,5.733L6294.88,-3.662L6344.07,-3.662L6344.07,5.733C6341.59,5.733 6339.24,6.117 6337.03,6.885C6334.81,7.653 6332.64,8.747 6330.51,10.165C6328.38,11.583 6326.29,13.267 6324.22,15.217C6322.15,17.167 6320.05,19.324 6317.93,21.687L6293.99,48.012L6327.76,101.637C6329.54,104.473 6331.24,106.822 6332.86,108.684C6334.49,110.545 6336.12,112.037 6337.78,113.16C6339.43,114.282 6341.12,115.08 6342.83,115.553C6344.55,116.026 6346.41,116.262 6348.42,116.262L6349.12,116.262L6349.12,125.923L6339.38,125.923C6334.77,125.923 6330.72,125.776 6327.23,125.48C6323.74,125.185 6320.69,124.741 6318.06,124.151C6315.43,123.56 6313.17,122.806 6311.28,121.89C6309.39,120.974 6307.73,119.896 6306.31,118.655C6304.9,117.414 6303.61,116.011 6302.46,114.445C6301.31,112.879 6300.17,111.151 6299.05,109.26L6274.58,67.512L6266.52,73.805L6266.52,104.473C6266.52,107.073 6266.77,109.142 6267.27,110.678C6267.77,112.214 6268.44,113.396 6269.26,114.223C6270.09,115.051 6271.1,115.597 6272.28,115.863C6273.46,116.129 6274.7,116.262 6276,116.262L6283.62,116.262L6283.62,125.923L6220.96,125.923L6220.96,116.262L6228.58,116.262C6229.88,116.262 6231.09,116.144 6232.21,115.907C6233.34,115.671 6234.33,115.184 6235.18,114.445C6236.04,113.706 6236.7,112.613 6237.18,111.165C6237.65,109.718 6237.89,107.812 6237.89,105.448L6237.89,16.99C6237.89,14.567 6237.65,12.632 6237.18,11.184C6236.7,9.736 6236.04,8.628 6235.18,7.86C6234.33,7.092 6233.34,6.575 6232.21,6.309C6231.09,6.043 6229.88,5.91 6228.58,5.91L6220.96,5.91L6220.96,-3.662L6283.62,-3.662L6283.62,5.91L6276,5.91C6274.7,5.91 6273.46,6.043 6272.28,6.309C6271.1,6.575 6270.09,7.122 6269.26,7.949C6268.44,8.776 6267.77,9.958 6267.27,11.494C6266.77,13.031 6266.52,15.099 6266.52,17.699L6266.52,60.067L6294.7,29.31Z" style="fill:rgb(5,13,64);fill-rule:nonzero;"/>
                <path d="M6486.32,92.153L6486.32,103.232C6486.32,106.069 6486.72,108.344 6487.52,110.057C6488.32,111.771 6489.38,113.086 6490.71,114.002C6492.04,114.918 6493.62,115.523 6495.45,115.819C6497.28,116.114 6499.2,116.262 6501.21,116.262L6503.52,116.262L6503.52,125.923L6439.88,125.923L6439.88,116.262L6444.93,116.262C6447,116.262 6448.93,116.114 6450.74,115.819C6452.54,115.523 6454.1,114.918 6455.43,114.002C6456.76,113.086 6457.83,111.771 6458.62,110.057C6459.42,108.344 6459.82,106.069 6459.82,103.232L6459.82,92.153L6409.56,92.153L6409.56,81.073L6461.06,-3.662L6486.32,-3.662L6486.32,80.187L6505.2,80.187L6505.2,92.153L6486.32,92.153ZM6459.82,48.455C6459.82,43.137 6459.91,37.405 6460.09,31.26C6460.26,25.115 6460.59,19.206 6461.06,13.533C6460.47,14.951 6459.53,16.901 6458.23,19.383C6456.93,21.865 6455.54,24.42 6454.06,27.05C6452.58,29.679 6451.16,32.161 6449.81,34.495C6448.44,36.829 6447.41,38.558 6446.7,39.68L6422.24,80.187L6459.82,80.187L6459.82,48.455Z" style="fill:rgb(5,13,64);fill-rule:nonzero;"/>
                <path d="M6699.39,5.91L6691.59,5.91C6690.35,5.91 6689.17,6.043 6688.05,6.309C6686.93,6.575 6685.94,7.122 6685.08,7.949C6684.22,8.776 6683.56,9.958 6683.08,11.494C6682.61,13.031 6682.38,15.099 6682.38,17.699L6682.38,88.519C6682.38,94.605 6681.5,100.071 6679.76,104.917C6678.02,109.762 6675.3,113.869 6671.61,117.237C6667.91,120.605 6663.2,123.19 6657.47,124.993C6651.74,126.795 6644.91,127.696 6636.99,127.696C6629.07,127.696 6622,126.943 6615.77,125.436C6609.53,123.929 6604.26,121.521 6599.94,118.212C6595.63,114.903 6592.34,110.634 6590.06,105.404C6587.78,100.175 6586.65,93.837 6586.65,86.392L6586.65,16.99C6586.65,14.567 6586.4,12.632 6585.89,11.184C6585.39,9.736 6584.71,8.628 6583.86,7.86C6583,7.092 6582.02,6.575 6580.93,6.309C6579.84,6.043 6578.67,5.91 6577.43,5.91L6569.63,5.91L6569.63,-3.662L6632.21,-3.662L6632.21,5.91L6624.58,5.91C6623.34,5.91 6622.16,6.043 6621.04,6.309C6619.92,6.575 6618.93,7.122 6618.07,7.949C6617.21,8.776 6616.55,9.958 6616.07,11.494C6615.6,13.031 6615.37,15.099 6615.37,17.699L6615.37,87.81C6615.37,92.892 6616,97.161 6617.27,100.618C6618.54,104.074 6620.36,106.852 6622.72,108.949C6625.09,111.047 6627.92,112.554 6631.23,113.47C6634.54,114.386 6638.26,114.844 6642.4,114.844C6646.42,114.844 6650.05,114.327 6653.3,113.293C6656.55,112.259 6659.31,110.648 6661.59,108.462C6663.86,106.276 6665.62,103.498 6666.86,100.13C6668.1,96.762 6668.73,92.773 6668.73,88.164L6668.73,16.99C6668.73,14.567 6668.49,12.632 6668.02,11.184C6667.54,9.736 6666.88,8.628 6666.02,7.86C6665.16,7.092 6664.18,6.575 6663.05,6.309C6661.93,6.043 6660.75,5.91 6659.51,5.91L6651.88,5.91L6651.88,-3.662L6699.39,-3.662L6699.39,5.91Z" style="fill:rgb(5,13,64);fill-rule:nonzero;"/>
                <path d="M6781.42,104.473C6781.42,107.073 6781.66,109.142 6782.13,110.678C6782.6,112.214 6783.27,113.396 6784.12,114.223C6784.98,115.051 6785.97,115.597 6787.09,115.863C6788.22,116.129 6789.43,116.262 6790.73,116.262L6798.35,116.262L6798.35,125.923L6735.68,125.923L6735.68,116.262L6743.31,116.262C6744.67,116.262 6745.91,116.129 6747.03,115.863C6748.15,115.597 6749.13,115.051 6749.95,114.223C6750.78,113.396 6751.43,112.214 6751.9,110.678C6752.38,109.142 6752.61,107.073 6752.61,104.473L6752.61,7.417L6738.08,7.417C6735.36,7.417 6733.08,7.712 6731.25,8.303C6729.42,8.894 6727.93,9.736 6726.78,10.829C6725.62,11.923 6724.77,13.267 6724.2,14.862C6723.64,16.458 6723.24,18.26 6723.01,20.269L6721.77,31.526L6709.54,31.526L6710.51,-3.662L6823.61,-3.662L6824.5,31.526L6812.35,31.526L6811.02,20.269C6810.79,18.26 6810.39,16.458 6809.83,14.862C6809.27,13.267 6808.41,11.923 6807.26,10.829C6806.11,9.736 6804.61,8.894 6802.78,8.303C6800.95,7.712 6798.67,7.417 6795.96,7.417L6781.42,7.417L6781.42,104.473Z" style="fill:rgb(5,13,64);fill-rule:nonzero;"/>
                <path d="M6860.35,83.289L6855.11,98.889C6854.64,100.367 6854.15,102.095 6853.65,104.074C6853.15,106.054 6852.9,107.782 6852.9,109.26C6852.9,110.442 6853.14,111.476 6853.61,112.362C6854.08,113.248 6854.7,113.972 6855.47,114.534C6856.24,115.095 6857.11,115.523 6858.09,115.819C6859.06,116.114 6860.08,116.262 6861.14,116.262L6868.77,116.262L6868.77,125.923L6821.52,125.923L6821.52,116.262L6823.74,116.262C6825.33,116.262 6826.8,116.085 6828.13,115.73C6829.45,115.376 6830.7,114.711 6831.85,113.736C6833,112.761 6834.09,111.417 6835.13,109.703C6836.16,107.989 6837.21,105.773 6838.28,103.055L6877.63,-3.662L6902.54,-3.662L6940.47,103.232C6941.36,105.773 6942.29,107.886 6943.26,109.57C6944.24,111.254 6945.3,112.584 6946.45,113.559C6947.61,114.534 6948.83,115.228 6950.13,115.641C6951.43,116.055 6952.79,116.262 6954.21,116.262L6957.49,116.262L6957.49,125.923L6897.57,125.923L6897.57,116.262L6904.66,116.262C6905.55,116.262 6906.47,116.129 6907.41,115.863C6908.36,115.597 6909.2,115.184 6909.94,114.622C6910.68,114.061 6911.28,113.337 6911.75,112.451C6912.23,111.564 6912.46,110.501 6912.46,109.26C6912.46,107.782 6912.29,106.364 6911.93,105.005C6911.58,103.646 6911.22,102.464 6910.87,101.46L6904.49,83.289L6860.35,83.289ZM6891.28,42.428C6890.63,40.36 6889.96,38.188 6889.28,35.913C6888.61,33.638 6887.93,31.319 6887.25,28.956C6886.57,26.592 6885.92,24.243 6885.3,21.909C6884.68,19.575 6884.13,17.344 6883.66,15.217C6883.12,17.049 6882.5,19.058 6881.8,21.244C6881.09,23.431 6880.33,25.676 6879.53,27.981C6878.74,30.285 6877.94,32.59 6877.14,34.894C6876.34,37.199 6875.59,39.415 6874.88,41.542L6864.16,72.21L6900.85,72.21L6891.28,42.428Z" style="fill:rgb(5,13,64);fill-rule:nonzero;"/>
                <path d="M7043.86,125.923L7043.86,116.262L7051.66,116.262C7052.96,116.262 7054.17,116.129 7055.29,115.863C7056.42,115.597 7057.41,115.051 7058.26,114.223C7059.12,113.396 7059.78,112.214 7060.26,110.678C7060.73,109.142 7060.97,107.073 7060.97,104.473L7060.97,63.878L7013.55,63.878L7013.55,104.473C7013.55,107.073 7013.8,109.142 7014.3,110.678C7014.8,112.214 7015.47,113.396 7016.3,114.223C7017.12,115.051 7018.1,115.597 7019.22,115.863C7020.34,116.129 7021.55,116.262 7022.85,116.262L7030.65,116.262L7030.65,125.923L6967.99,125.923L6967.99,116.262L6975.61,116.262C6976.91,116.262 6978.12,116.129 6979.24,115.863C6980.37,115.597 6981.36,115.051 6982.21,114.223C6983.07,113.396 6983.74,112.214 6984.21,110.678C6984.68,109.142 6984.92,107.073 6984.92,104.473L6984.92,17.078C6984.92,14.656 6984.67,12.72 6984.16,11.273C6983.66,9.825 6982.98,8.717 6982.12,7.949C6981.27,7.181 6980.28,6.664 6979.16,6.398C6978.03,6.132 6976.85,5.999 6975.61,5.999L6967.99,5.999L6967.99,-3.662L7030.65,-3.662L7030.65,5.999L7022.85,5.999C7021.55,5.999 7020.34,6.132 7019.22,6.398C7018.1,6.664 7017.12,7.21 7016.3,8.037C7015.47,8.865 7014.8,10.047 7014.3,11.583C7013.8,13.119 7013.55,15.187 7013.55,17.787L7013.55,52.799L7060.97,52.799L7060.97,17.787C7060.97,15.187 7060.73,13.119 7060.26,11.583C7059.78,10.047 7059.12,8.865 7058.26,8.037C7057.41,7.21 7056.42,6.664 7055.29,6.398C7054.17,6.132 7052.96,5.999 7051.66,5.999L7043.86,5.999L7043.86,-3.662L7106.53,-3.662L7106.53,5.999L7098.9,5.999C7097.66,5.999 7096.48,6.132 7095.36,6.398C7094.24,6.664 7093.24,7.21 7092.39,8.037C7091.53,8.865 7090.87,10.047 7090.39,11.583C7089.92,13.119 7089.69,15.187 7089.69,17.787L7089.69,105.448C7089.69,107.812 7089.94,109.718 7090.44,111.165C7090.94,112.613 7091.62,113.706 7092.48,114.445C7093.33,115.184 7094.31,115.671 7095.4,115.907C7096.49,116.144 7097.66,116.262 7098.9,116.262L7106.53,116.262L7106.53,125.923L7043.86,125.923Z" style="fill:rgb(5,13,64);fill-rule:nonzero;"/>
            </g>
            <g transform="matrix(0.402697,0,0,0.732871,-4876.85,218.672)">
                <path d="M6047.01,629.987L6036.1,649.043C6033.8,653.061 6032.65,656.43 6032.65,659.148C6032.65,663.52 6036.02,665.707 6042.75,665.707L6047.01,665.707L6045.5,673.33L6000.65,673.33L6002.16,665.707L6005.61,665.707C6008.86,665.707 6011.58,664.865 6013.77,663.181C6015.95,661.497 6018.85,657.611 6022.45,651.525L6085.65,543.744L6099.83,543.744L6117.03,656.046C6117.62,659.827 6118.65,662.383 6120.13,663.713C6121.61,665.042 6124.15,665.707 6127.75,665.707L6130.15,665.707L6128.64,673.33L6079.27,673.33L6080.69,665.707L6084.94,665.707C6093.63,665.707 6097.97,662.634 6097.97,656.489C6097.97,654.007 6097.85,651.939 6097.62,650.284L6094.69,629.987L6047.01,629.987ZM6088.93,589.125C6087.1,576.244 6086.12,566.671 6086.01,560.407C6083.23,566.966 6078.5,575.978 6071.82,587.441L6052.41,620.857L6093.45,620.857L6088.93,589.125Z" style="fill:none;"/>
                <path d="M6212.12,635.393C6212.12,644.671 6214.58,652.131 6219.48,657.774C6224.39,663.417 6231.12,666.239 6239.69,666.239C6248.14,666.239 6254.86,664.141 6259.86,659.945C6264.85,655.75 6267.34,650.048 6267.34,642.839C6267.34,637.107 6265.91,632.262 6263.05,628.302C6260.18,624.343 6253.99,619.675 6244.48,614.298C6234.78,608.684 6228.06,602.923 6224.31,597.014C6220.56,591.105 6218.68,584.428 6218.68,576.982C6218.68,566.523 6222.64,558.058 6230.56,551.588C6238.48,545.118 6249.2,541.882 6262.74,541.882C6273.25,541.882 6281.64,543.714 6287.91,547.378C6294.17,551.041 6297.3,555.739 6297.3,561.471C6297.3,569.862 6291.96,574.057 6281.26,574.057C6281.26,566.966 6279.58,561.353 6276.21,557.216C6272.84,553.08 6267.88,551.012 6261.32,551.012C6254.11,551.012 6248.2,553.08 6243.59,557.216C6238.98,561.353 6236.68,566.907 6236.68,573.88C6236.68,579.021 6237.9,583.467 6240.36,587.22C6242.81,590.972 6249.06,595.773 6259.1,601.623C6268.61,607.178 6275.48,612.703 6279.71,618.198C6283.93,623.693 6286.05,629.957 6286.05,636.989C6286.05,648.984 6281.85,658.335 6273.46,665.042C6265.07,671.749 6253.4,675.102 6238.45,675.102C6226.1,675.102 6216.29,672.665 6209.02,667.79C6201.75,662.915 6198.12,656.725 6198.12,649.221C6198.12,645.025 6199.43,641.672 6202.06,639.16C6204.69,636.649 6208.05,635.393 6212.12,635.393Z" style="fill:none;"/>
                <path d="M6313.03,576.007L6346.8,576.007L6334.84,630.341C6332.41,641.332 6331.2,648.63 6331.2,652.234C6331.2,659.62 6334.16,663.314 6340.07,663.314C6346.27,663.314 6352.96,658.838 6360.14,649.885C6367.32,640.933 6372,631.375 6374.19,621.212L6383.67,576.007L6401.22,576.007L6388.73,634.33C6386.89,642.898 6385.98,649.605 6385.98,654.45C6385.98,660.595 6387.99,663.668 6392.01,663.668C6395.43,663.668 6399.3,662.339 6403.62,659.68L6406.9,664.998C6399.22,671.734 6391.53,675.102 6383.85,675.102C6379.3,675.102 6375.62,673.477 6372.82,670.227C6370.01,666.977 6368.61,662.87 6368.61,657.907C6368.61,654.775 6368.9,651.2 6369.49,647.182L6368.07,647.182C6361.52,657.996 6355.65,665.323 6350.48,669.164C6345.31,673.005 6339.47,674.925 6332.97,674.925C6320.03,674.925 6313.56,668.218 6313.56,654.805C6313.56,650.964 6314.66,644.316 6316.84,634.862L6323.93,603.041C6325,598.255 6325.53,594.65 6325.53,592.228C6325.53,586.496 6321.3,583.63 6312.85,583.63L6311.44,583.63L6313.03,576.007Z" style="fill:none;"/>
                <path d="M6449.75,709.316L6448.15,716.938L6414.03,716.938L6438.14,601.8C6439.2,596.719 6439.73,593.528 6439.73,592.228C6439.73,586.496 6435.51,583.63 6427.06,583.63L6425.64,583.63L6427.23,576.007L6459.41,576.007L6455.07,600.205L6455.95,600.205C6464.7,582.891 6475.78,574.235 6489.19,574.235C6496.58,574.235 6502.26,577.041 6506.25,582.655C6510.24,588.269 6512.24,596.394 6512.24,607.03C6512.24,623.28 6507.17,638.688 6497.03,653.253C6486.9,667.819 6473.91,675.102 6458.08,675.102C6451.16,675.102 6445.26,673.714 6440.35,670.936C6439.82,674.836 6439.32,677.761 6438.84,679.711L6436.36,690.791C6435.24,695.814 6434.68,699.182 6434.68,700.895C6434.68,706.509 6438.9,709.316 6447.35,709.316L6449.75,709.316ZM6443.19,660.477C6447.09,664.791 6451.87,666.948 6457.55,666.948C6467.65,666.948 6476.2,660.344 6483.21,647.138C6490.21,633.931 6493.71,620.503 6493.71,606.853C6493.71,592.73 6489.9,585.669 6482.28,585.669C6476.01,585.669 6469.69,590.027 6463.31,598.742C6456.93,607.458 6452.7,616.514 6450.63,625.909L6443.19,660.477Z" style="fill:none;"/>
                <path d="M6598.25,650.639C6599.49,651.407 6600.11,652.914 6600.11,655.159C6600.11,660.005 6597.26,664.54 6591.56,668.765C6585.86,672.99 6578.22,675.102 6568.65,675.102C6558.07,675.102 6549.53,671.764 6543.03,665.086C6536.53,658.409 6533.28,649.25 6533.28,637.609C6533.28,621.773 6538.39,607.251 6548.61,594.045C6558.84,580.838 6571.75,574.235 6587.35,574.235C6595.03,574.235 6600.98,576.066 6605.21,579.73C6609.43,583.394 6611.55,588.505 6611.55,595.064C6611.55,604.873 6606.45,613.412 6596.26,620.68C6586.06,627.948 6573.61,631.582 6558.9,631.582L6555.79,631.582C6554.73,631.582 6553.64,631.523 6552.52,631.405C6552.28,633.059 6552.16,635.6 6552.16,639.027C6552.16,655.455 6558.81,663.668 6572.1,663.668C6582.44,663.668 6591.16,659.325 6598.25,650.639ZM6554.2,623.073L6555.97,623.073C6566.67,623.073 6575.49,620.473 6582.43,615.273C6589.37,610.073 6592.84,603.337 6592.84,595.064C6592.84,586.969 6589.33,582.921 6582.3,582.921C6576.45,582.921 6570.98,586.599 6565.9,593.956C6560.82,601.313 6556.92,611.018 6554.2,623.073Z" style="fill:none;"/>
                <path d="M6691.27,600.559C6691.27,590.987 6688.85,586.2 6684,586.2C6678.39,586.2 6672.43,591.725 6666.14,602.775C6659.85,613.825 6655.19,626.323 6652.18,640.268L6645.36,673.33L6628.43,673.33L6643.67,600.382C6644.38,597.014 6644.74,594.296 6644.74,592.228C6644.74,586.496 6639.92,583.63 6630.29,583.63L6628.78,583.63L6630.47,576.007L6662.55,576.007L6658.74,602.155L6660.6,602.155C6665.45,591.341 6670.23,583.984 6674.96,580.085C6679.69,576.185 6685.18,574.235 6691.45,574.235C6701.37,574.235 6706.34,578.4 6706.34,586.732C6706.34,595.95 6701.31,600.559 6691.27,600.559Z" style="fill:none;"/>
                <path d="M6759.77,673.33L6761.37,665.707L6763.76,665.707C6769.44,665.707 6773.54,664.614 6776.08,662.427C6778.62,660.241 6780.34,656.991 6781.22,652.677L6800.1,563.687C6800.58,561.441 6800.81,559.757 6800.81,558.635C6800.81,553.789 6796.44,551.366 6787.69,551.366L6785.39,551.366L6786.99,543.744L6833.52,543.744C6846.64,543.744 6856.8,546.787 6864.01,552.873C6871.22,558.96 6874.82,567.587 6874.82,578.755C6874.82,592.523 6870.2,603.322 6860.95,611.151C6851.7,618.981 6837.83,622.896 6819.34,622.896L6805.86,622.896L6799.39,653.386C6798.86,655.868 6798.6,657.552 6798.6,658.439C6798.6,663.284 6802.97,665.707 6811.71,665.707L6817.65,665.707L6816.06,673.33L6759.77,673.33ZM6807.73,614.298L6817.3,614.298C6842.83,614.298 6855.59,602.509 6855.59,578.932C6855.59,561.264 6846.76,552.43 6829.09,552.43L6820.76,552.43L6807.73,614.298Z" style="fill:none;"/>
                <path d="M6908.54,629.987L6897.64,649.043C6895.34,653.061 6894.19,656.43 6894.19,659.148C6894.19,663.52 6897.55,665.707 6904.29,665.707L6908.54,665.707L6907.04,673.33L6862.19,673.33L6863.69,665.707L6867.15,665.707C6870.4,665.707 6873.12,664.865 6875.31,663.181C6877.49,661.497 6880.39,657.611 6883.99,651.525L6947.19,543.744L6961.37,543.744L6978.57,656.046C6979.16,659.827 6980.19,662.383 6981.67,663.713C6983.15,665.042 6985.69,665.707 6989.29,665.707L6991.68,665.707L6990.18,673.33L6940.81,673.33L6942.23,665.707L6946.48,665.707C6955.17,665.707 6959.51,662.634 6959.51,656.489C6959.51,654.007 6959.39,651.939 6959.15,650.284L6956.23,629.987L6908.54,629.987ZM6950.47,589.125C6948.64,576.244 6947.66,566.671 6947.54,560.407C6944.77,566.966 6940.04,575.978 6933.36,587.441L6913.95,620.857L6954.99,620.857L6950.47,589.125Z" style="fill:none;"/>
                <path d="M7097.29,646.827C7098.88,647.95 7099.68,649.959 7099.68,652.855C7099.68,658.646 7096.31,663.801 7089.58,668.322C7082.84,672.842 7073.56,675.102 7061.75,675.102C7045.97,675.102 7033.66,670.877 7024.83,662.427C7015.99,653.977 7011.58,642.011 7011.58,626.53C7011.58,603.603 7018.73,583.763 7033.03,567.011C7047.33,550.259 7065.11,541.882 7086.39,541.882C7096.96,541.882 7105.21,543.699 7111.12,547.334C7117.03,550.968 7119.98,555.887 7119.98,562.091C7119.98,566.405 7118.36,569.832 7115.11,572.373C7111.86,574.914 7107.54,576.185 7102.16,576.185C7102.16,559.757 7096.14,551.544 7084.08,551.544C7069.13,551.544 7056.62,559.683 7046.55,575.963C7036.47,592.242 7031.43,610.043 7031.43,629.366C7031.43,651.998 7042.19,663.314 7063.7,663.314C7077.7,663.314 7088.9,657.818 7097.29,646.827Z" style="fill:none;"/>
                <path d="M6047.01,629.987L6036.1,649.043C6033.8,653.061 6032.65,656.43 6032.65,659.148C6032.65,663.52 6036.02,665.707 6042.75,665.707L6047.01,665.707L6045.5,673.33L6000.65,673.33L6002.16,665.707L6005.61,665.707C6008.86,665.707 6011.58,664.865 6013.77,663.181C6015.95,661.497 6018.85,657.611 6022.45,651.525L6085.65,543.744L6099.83,543.744L6117.03,656.046C6117.62,659.827 6118.65,662.383 6120.13,663.713C6121.61,665.042 6124.15,665.707 6127.75,665.707L6130.15,665.707L6128.64,673.33L6079.27,673.33L6080.69,665.707L6084.94,665.707C6093.63,665.707 6097.97,662.634 6097.97,656.489C6097.97,654.007 6097.85,651.939 6097.62,650.284L6094.69,629.987L6047.01,629.987ZM6088.93,589.125C6087.1,576.244 6086.12,566.671 6086.01,560.407C6083.23,566.966 6078.5,575.978 6071.82,587.441L6052.41,620.857L6093.45,620.857L6088.93,589.125Z" style="fill:rgb(204,51,51);fill-rule:nonzero;"/>
                <path d="M6212.12,635.393C6212.12,644.671 6214.58,652.131 6219.48,657.774C6224.39,663.417 6231.12,666.239 6239.69,666.239C6248.14,666.239 6254.86,664.141 6259.86,659.945C6264.85,655.75 6267.34,650.048 6267.34,642.839C6267.34,637.107 6265.91,632.262 6263.05,628.302C6260.18,624.343 6253.99,619.675 6244.48,614.298C6234.78,608.684 6228.06,602.923 6224.31,597.014C6220.56,591.105 6218.68,584.428 6218.68,576.982C6218.68,566.523 6222.64,558.058 6230.56,551.588C6238.48,545.118 6249.2,541.882 6262.74,541.882C6273.25,541.882 6281.64,543.714 6287.91,547.378C6294.17,551.041 6297.3,555.739 6297.3,561.471C6297.3,569.862 6291.96,574.057 6281.26,574.057C6281.26,566.966 6279.58,561.353 6276.21,557.216C6272.84,553.08 6267.88,551.012 6261.32,551.012C6254.11,551.012 6248.2,553.08 6243.59,557.216C6238.98,561.353 6236.68,566.907 6236.68,573.88C6236.68,579.021 6237.9,583.467 6240.36,587.22C6242.81,590.972 6249.06,595.773 6259.1,601.623C6268.61,607.178 6275.48,612.703 6279.71,618.198C6283.93,623.693 6286.05,629.957 6286.05,636.989C6286.05,648.984 6281.85,658.335 6273.46,665.042C6265.07,671.749 6253.4,675.102 6238.45,675.102C6226.1,675.102 6216.29,672.665 6209.02,667.79C6201.75,662.915 6198.12,656.725 6198.12,649.221C6198.12,645.025 6199.43,641.672 6202.06,639.16C6204.69,636.649 6208.05,635.393 6212.12,635.393Z" style="fill:rgb(204,51,51);fill-rule:nonzero;"/>
                <path d="M6313.03,576.007L6346.8,576.007L6334.84,630.341C6332.41,641.332 6331.2,648.63 6331.2,652.234C6331.2,659.62 6334.16,663.314 6340.07,663.314C6346.27,663.314 6352.96,658.838 6360.14,649.885C6367.32,640.933 6372,631.375 6374.19,621.212L6383.67,576.007L6401.22,576.007L6388.73,634.33C6386.89,642.898 6385.98,649.605 6385.98,654.45C6385.98,660.595 6387.99,663.668 6392.01,663.668C6395.43,663.668 6399.3,662.339 6403.62,659.68L6406.9,664.998C6399.22,671.734 6391.53,675.102 6383.85,675.102C6379.3,675.102 6375.62,673.477 6372.82,670.227C6370.01,666.977 6368.61,662.87 6368.61,657.907C6368.61,654.775 6368.9,651.2 6369.49,647.182L6368.07,647.182C6361.52,657.996 6355.65,665.323 6350.48,669.164C6345.31,673.005 6339.47,674.925 6332.97,674.925C6320.03,674.925 6313.56,668.218 6313.56,654.805C6313.56,650.964 6314.66,644.316 6316.84,634.862L6323.93,603.041C6325,598.255 6325.53,594.65 6325.53,592.228C6325.53,586.496 6321.3,583.63 6312.85,583.63L6311.44,583.63L6313.03,576.007Z" style="fill:rgb(204,51,51);fill-rule:nonzero;"/>
                <path d="M6449.75,709.316L6448.15,716.938L6414.03,716.938L6438.14,601.8C6439.2,596.719 6439.73,593.528 6439.73,592.228C6439.73,586.496 6435.51,583.63 6427.06,583.63L6425.64,583.63L6427.23,576.007L6459.41,576.007L6455.07,600.205L6455.95,600.205C6464.7,582.891 6475.78,574.235 6489.19,574.235C6496.58,574.235 6502.26,577.041 6506.25,582.655C6510.24,588.269 6512.24,596.394 6512.24,607.03C6512.24,623.28 6507.17,638.688 6497.03,653.253C6486.9,667.819 6473.91,675.102 6458.08,675.102C6451.16,675.102 6445.26,673.714 6440.35,670.936C6439.82,674.836 6439.32,677.761 6438.84,679.711L6436.36,690.791C6435.24,695.814 6434.68,699.182 6434.68,700.895C6434.68,706.509 6438.9,709.316 6447.35,709.316L6449.75,709.316ZM6443.19,660.477C6447.09,664.791 6451.87,666.948 6457.55,666.948C6467.65,666.948 6476.2,660.344 6483.21,647.138C6490.21,633.931 6493.71,620.503 6493.71,606.853C6493.71,592.73 6489.9,585.669 6482.28,585.669C6476.01,585.669 6469.69,590.027 6463.31,598.742C6456.93,607.458 6452.7,616.514 6450.63,625.909L6443.19,660.477Z" style="fill:rgb(204,51,51);fill-rule:nonzero;"/>
                <path d="M6598.25,650.639C6599.49,651.407 6600.11,652.914 6600.11,655.159C6600.11,660.005 6597.26,664.54 6591.56,668.765C6585.86,672.99 6578.22,675.102 6568.65,675.102C6558.07,675.102 6549.53,671.764 6543.03,665.086C6536.53,658.409 6533.28,649.25 6533.28,637.609C6533.28,621.773 6538.39,607.251 6548.61,594.045C6558.84,580.838 6571.75,574.235 6587.35,574.235C6595.03,574.235 6600.98,576.066 6605.21,579.73C6609.43,583.394 6611.55,588.505 6611.55,595.064C6611.55,604.873 6606.45,613.412 6596.26,620.68C6586.06,627.948 6573.61,631.582 6558.9,631.582L6555.79,631.582C6554.73,631.582 6553.64,631.523 6552.52,631.405C6552.28,633.059 6552.16,635.6 6552.16,639.027C6552.16,655.455 6558.81,663.668 6572.1,663.668C6582.44,663.668 6591.16,659.325 6598.25,650.639ZM6554.2,623.073L6555.97,623.073C6566.67,623.073 6575.49,620.473 6582.43,615.273C6589.37,610.073 6592.84,603.337 6592.84,595.064C6592.84,586.969 6589.33,582.921 6582.3,582.921C6576.45,582.921 6570.98,586.599 6565.9,593.956C6560.82,601.313 6556.92,611.018 6554.2,623.073Z" style="fill:rgb(204,51,51);fill-rule:nonzero;"/>
                <path d="M6691.27,600.559C6691.27,590.987 6688.85,586.2 6684,586.2C6678.39,586.2 6672.43,591.725 6666.14,602.775C6659.85,613.825 6655.19,626.323 6652.18,640.268L6645.36,673.33L6628.43,673.33L6643.67,600.382C6644.38,597.014 6644.74,594.296 6644.74,592.228C6644.74,586.496 6639.92,583.63 6630.29,583.63L6628.78,583.63L6630.47,576.007L6662.55,576.007L6658.74,602.155L6660.6,602.155C6665.45,591.341 6670.23,583.984 6674.96,580.085C6679.69,576.185 6685.18,574.235 6691.45,574.235C6701.37,574.235 6706.34,578.4 6706.34,586.732C6706.34,595.95 6701.31,600.559 6691.27,600.559Z" style="fill:rgb(204,51,51);fill-rule:nonzero;"/>
                <path d="M6759.77,673.33L6761.37,665.707L6763.76,665.707C6769.44,665.707 6773.54,664.614 6776.08,662.427C6778.62,660.241 6780.34,656.991 6781.22,652.677L6800.1,563.687C6800.58,561.441 6800.81,559.757 6800.81,558.635C6800.81,553.789 6796.44,551.366 6787.69,551.366L6785.39,551.366L6786.99,543.744L6833.52,543.744C6846.64,543.744 6856.8,546.787 6864.01,552.873C6871.22,558.96 6874.82,567.587 6874.82,578.755C6874.82,592.523 6870.2,603.322 6860.95,611.151C6851.7,618.981 6837.83,622.896 6819.34,622.896L6805.86,622.896L6799.39,653.386C6798.86,655.868 6798.6,657.552 6798.6,658.439C6798.6,663.284 6802.97,665.707 6811.71,665.707L6817.65,665.707L6816.06,673.33L6759.77,673.33ZM6807.73,614.298L6817.3,614.298C6842.83,614.298 6855.59,602.509 6855.59,578.932C6855.59,561.264 6846.76,552.43 6829.09,552.43L6820.76,552.43L6807.73,614.298Z" style="fill:rgb(204,51,51);fill-rule:nonzero;"/>
                <path d="M6908.54,629.987L6897.64,649.043C6895.34,653.061 6894.19,656.43 6894.19,659.148C6894.19,663.52 6897.55,665.707 6904.29,665.707L6908.54,665.707L6907.04,673.33L6862.19,673.33L6863.69,665.707L6867.15,665.707C6870.4,665.707 6873.12,664.865 6875.31,663.181C6877.49,661.497 6880.39,657.611 6883.99,651.525L6947.19,543.744L6961.37,543.744L6978.57,656.046C6979.16,659.827 6980.19,662.383 6981.67,663.713C6983.15,665.042 6985.69,665.707 6989.29,665.707L6991.68,665.707L6990.18,673.33L6940.81,673.33L6942.23,665.707L6946.48,665.707C6955.17,665.707 6959.51,662.634 6959.51,656.489C6959.51,654.007 6959.39,651.939 6959.15,650.284L6956.23,629.987L6908.54,629.987ZM6950.47,589.125C6948.64,576.244 6947.66,566.671 6947.54,560.407C6944.77,566.966 6940.04,575.978 6933.36,587.441L6913.95,620.857L6954.99,620.857L6950.47,589.125Z" style="fill:rgb(204,51,51);fill-rule:nonzero;"/>
                <path d="M7097.29,646.827C7098.88,647.95 7099.68,649.959 7099.68,652.855C7099.68,658.646 7096.31,663.801 7089.58,668.322C7082.84,672.842 7073.56,675.102 7061.75,675.102C7045.97,675.102 7033.66,670.877 7024.83,662.427C7015.99,653.977 7011.58,642.011 7011.58,626.53C7011.58,603.603 7018.73,583.763 7033.03,567.011C7047.33,550.259 7065.11,541.882 7086.39,541.882C7096.96,541.882 7105.21,543.699 7111.12,547.334C7117.03,550.968 7119.98,555.887 7119.98,562.091C7119.98,566.405 7118.36,569.832 7115.11,572.373C7111.86,574.914 7107.54,576.185 7102.16,576.185C7102.16,559.757 7096.14,551.544 7084.08,551.544C7069.13,551.544 7056.62,559.683 7046.55,575.963C7036.47,592.242 7031.43,610.043 7031.43,629.366C7031.43,651.998 7042.19,663.314 7063.7,663.314C7077.7,663.314 7088.9,657.818 7097.29,646.827Z" style="fill:rgb(204,51,51);fill-rule:nonzero;"/>
            </g>
            <g transform="matrix(0.680216,0,0,1.23793,-6999.01,419.478)">
                <g>
                    <g transform="matrix(0.323799,0,0,0.323799,4313.77,-438.693)">
                        <path d="M8552.37,1094.35L8458.04,1024.36L8363.71,1094.35L8269.38,1024.36L8175.05,1094.35L8080.72,1024.36L7986.39,1094.35L8071.59,710.938C8097.38,600.403 7926.21,594.064 7910.31,677.466C7872.33,674.879 7851.74,598.806 7867.71,570.963C7883.44,541.751 7913.53,505.312 8001.6,507.061C8011.8,479.954 8030.81,446.659 8102.02,446.203L8293.72,446.203C8357.3,446.659 8408.01,479.954 8433.7,592.264L8552.37,1094.35ZM8150.94,507.601C8152.53,511.419 8153.41,515.608 8153.41,520.001C8153.41,537.783 8138.98,552.22 8121.2,552.22C8105.87,552.22 8093.02,541.492 8089.77,527.141L8150.94,507.601Z" style="fill:rgb(204,51,51);"/>
                    </g>
                    <g transform="matrix(1,0,0,1,1.84375,-18.1562)">
                        <rect x="7025.74" y="-197.884" width="303.453" height="31.672" style="fill:rgb(204,51,51);"/>
                    </g>
                    <g transform="matrix(1,0,0,1,1.84375,46.4844)">
                        <rect x="7025.74" y="-197.884" width="303.453" height="31.672" style="fill:rgb(204,51,51);"/>
                    </g>
                </g>
                <g transform="matrix(1,0,0,1,-9.09495e-13,13)">
                    <g>
                        <path d="M7074.23,-264.452L7066.14,-264.452C7060.89,-264.452 7056.63,-268.715 7056.63,-273.966L7056.63,-340.754C7056.63,-346.005 7060.89,-350.267 7066.14,-350.267L7314.82,-350.267C7320.07,-350.267 7324.33,-346.005 7324.33,-340.754L7324.33,-273.966C7324.33,-268.715 7320.07,-264.452 7314.82,-264.452L7095.41,-264.452C7093.56,-251.636 7086.54,-247.787 7081.05,-245.927C7075.62,-243.942 7062.19,-248.571 7062.53,-254.561C7068.68,-254.935 7072.79,-259.359 7074.23,-264.452ZM7093.07,-329.918L7087.34,-329.918C7086.5,-329.918 7085.79,-329.668 7085.21,-329.167C7084.63,-328.666 7084.34,-328.054 7084.34,-327.33L7084.34,-319.398L7083.07,-319.398C7082.23,-319.398 7081.52,-319.161 7080.94,-318.688C7080.36,-318.215 7080.07,-317.617 7080.07,-316.893L7080.07,-313.888C7080.07,-313.164 7080.36,-312.552 7080.94,-312.051C7081.52,-311.55 7082.23,-311.299 7083.07,-311.299L7084.34,-311.299L7084.34,-294.6C7084.34,-291.372 7085.37,-288.951 7087.44,-287.337C7089.51,-285.722 7092.55,-284.915 7096.56,-284.915L7098.69,-284.915C7099.54,-284.915 7100.25,-285.152 7100.83,-285.625C7101.41,-286.098 7101.7,-286.696 7101.7,-287.42L7101.7,-290.426C7101.7,-291.149 7101.43,-291.776 7100.88,-292.304C7100.33,-292.833 7099.6,-293.098 7098.69,-293.098C7097.66,-293.098 7096.95,-293.362 7096.56,-293.891C7096.17,-294.42 7095.98,-294.99 7095.98,-295.602L7095.98,-311.299L7098.99,-311.299C7099.83,-311.299 7100.54,-311.536 7101.12,-312.009C7101.7,-312.482 7101.99,-313.08 7101.99,-313.804L7101.99,-316.81C7101.99,-317.533 7101.7,-318.146 7101.12,-318.647C7100.54,-319.148 7099.83,-319.398 7098.99,-319.398L7095.98,-319.398L7095.98,-327.33C7095.98,-328.054 7095.7,-328.666 7095.15,-329.167C7094.6,-329.668 7093.91,-329.918 7093.07,-329.918ZM7112.18,-296.521C7111.34,-296.521 7110.65,-296.256 7110.1,-295.728C7109.55,-295.199 7109.27,-294.6 7109.27,-293.933C7109.27,-292.541 7109.63,-291.289 7110.34,-290.175C7111.05,-289.062 7112,-288.116 7113.2,-287.337C7114.4,-286.557 7115.82,-285.959 7117.47,-285.541C7119.12,-285.124 7120.88,-284.915 7122.76,-284.915C7124.89,-284.915 7126.88,-285.082 7128.73,-285.416C7130.57,-285.75 7132.19,-286.321 7133.58,-287.128C7134.97,-287.935 7136.05,-289.034 7136.83,-290.426C7137.6,-291.817 7137.99,-293.543 7137.99,-295.602C7137.99,-298.775 7137.31,-301.155 7135.95,-302.741C7134.6,-304.327 7132.14,-305.51 7128.58,-306.29C7125.41,-307.013 7123.29,-307.625 7122.23,-308.126C7121.16,-308.627 7120.62,-309.323 7120.62,-310.214C7120.62,-310.993 7120.83,-311.578 7121.25,-311.967C7121.68,-312.357 7122.44,-312.552 7123.53,-312.552C7125.15,-312.552 7126.22,-312.078 7126.74,-311.132C7126.99,-310.631 7127.37,-310.186 7127.85,-309.796C7128.34,-309.407 7128.94,-309.212 7129.65,-309.212L7134.21,-309.212C7135.05,-309.212 7135.74,-309.476 7136.29,-310.005C7136.84,-310.534 7137.12,-311.132 7137.12,-311.8C7137.12,-313.192 7136.76,-314.402 7136.05,-315.432C7135.34,-316.462 7134.37,-317.325 7133.14,-318.02C7131.91,-318.716 7130.47,-319.231 7128.82,-319.565C7127.17,-319.899 7125.41,-320.066 7123.53,-320.066C7121.47,-320.066 7119.57,-319.885 7117.86,-319.523C7116.14,-319.162 7114.66,-318.577 7113.4,-317.77C7112.13,-316.963 7111.15,-315.891 7110.44,-314.555C7109.72,-313.22 7109.37,-311.55 7109.37,-309.546C7109.37,-307.987 7109.58,-306.637 7110,-305.496C7110.42,-304.355 7111.02,-303.395 7111.79,-302.616C7112.57,-301.837 7113.49,-301.21 7114.56,-300.737C7115.63,-300.264 7116.81,-299.888 7118.1,-299.61C7120.95,-298.942 7123.11,-298.372 7124.6,-297.898C7126.09,-297.425 7126.83,-296.493 7126.83,-295.101C7126.83,-293.376 7125.64,-292.513 7123.24,-292.513C7122.21,-292.513 7121.42,-292.75 7120.87,-293.223C7120.32,-293.696 7119.91,-294.155 7119.65,-294.6C7119.4,-295.101 7119.02,-295.547 7118.54,-295.936C7118.05,-296.326 7117.45,-296.521 7116.74,-296.521L7112.18,-296.521ZM7219.88,-329.918L7214.16,-329.918C7213.32,-329.918 7212.61,-329.668 7212.02,-329.167C7211.44,-328.666 7211.15,-328.054 7211.15,-327.33L7211.15,-319.398L7209.89,-319.398C7209.05,-319.398 7208.34,-319.161 7207.75,-318.688C7207.17,-318.215 7206.88,-317.617 7206.88,-316.893L7206.88,-313.888C7206.88,-313.164 7207.17,-312.552 7207.75,-312.051C7208.34,-311.55 7209.05,-311.299 7209.89,-311.299L7211.15,-311.299L7211.15,-294.6C7211.15,-291.372 7212.19,-288.951 7214.26,-287.337C7216.32,-285.722 7219.36,-284.915 7223.38,-284.915L7225.51,-284.915C7226.35,-284.915 7227.06,-285.152 7227.65,-285.625C7228.23,-286.098 7228.52,-286.696 7228.52,-287.42L7228.52,-290.426C7228.52,-291.149 7228.24,-291.776 7227.69,-292.304C7227.14,-292.833 7226.42,-293.098 7225.51,-293.098C7224.48,-293.098 7223.76,-293.362 7223.38,-293.891C7222.99,-294.42 7222.79,-294.99 7222.79,-295.602L7222.79,-311.299L7225.8,-311.299C7226.64,-311.299 7227.35,-311.536 7227.94,-312.009C7228.52,-312.482 7228.81,-313.08 7228.81,-313.804L7228.81,-316.81C7228.81,-317.533 7228.52,-318.146 7227.94,-318.647C7227.35,-319.148 7226.64,-319.398 7225.8,-319.398L7222.79,-319.398L7222.79,-327.33C7222.79,-328.054 7222.52,-328.666 7221.97,-329.167C7221.42,-329.668 7220.72,-329.918 7219.88,-329.918ZM7239,-296.521C7238.16,-296.521 7237.46,-296.256 7236.91,-295.728C7236.36,-295.199 7236.09,-294.6 7236.09,-293.933C7236.09,-292.541 7236.44,-291.289 7237.15,-290.175C7237.86,-289.062 7238.82,-288.116 7240.02,-287.337C7241.21,-286.557 7242.64,-285.959 7244.28,-285.541C7245.94,-285.124 7247.7,-284.915 7249.57,-284.915C7251.71,-284.915 7253.7,-285.082 7255.54,-285.416C7257.38,-285.75 7259,-286.321 7260.39,-287.128C7261.78,-287.935 7262.87,-289.034 7263.64,-290.426C7264.42,-291.817 7264.81,-293.543 7264.81,-295.602C7264.81,-298.775 7264.13,-301.155 7262.77,-302.741C7261.41,-304.327 7258.95,-305.51 7255.4,-306.29C7252.23,-307.013 7250.11,-307.625 7249.04,-308.126C7247.97,-308.627 7247.44,-309.323 7247.44,-310.214C7247.44,-310.993 7247.65,-311.578 7248.07,-311.967C7248.49,-312.357 7249.25,-312.552 7250.35,-312.552C7251.97,-312.552 7253.03,-312.078 7253.55,-311.132C7253.81,-310.631 7254.18,-310.186 7254.67,-309.796C7255.15,-309.407 7255.75,-309.212 7256.46,-309.212L7261.02,-309.212C7261.86,-309.212 7262.56,-309.476 7263.11,-310.005C7263.66,-310.534 7263.93,-311.132 7263.93,-311.8C7263.93,-313.192 7263.58,-314.402 7262.87,-315.432C7262.15,-316.462 7261.18,-317.325 7259.95,-318.02C7258.73,-318.716 7257.29,-319.231 7255.64,-319.565C7253.99,-319.899 7252.23,-320.066 7250.35,-320.066C7248.28,-320.066 7246.39,-319.885 7244.67,-319.523C7242.96,-319.162 7241.47,-318.577 7240.21,-317.77C7238.95,-316.963 7237.96,-315.891 7237.25,-314.555C7236.54,-313.22 7236.18,-311.55 7236.18,-309.546C7236.18,-307.987 7236.39,-306.637 7236.81,-305.496C7237.23,-304.355 7237.83,-303.395 7238.61,-302.616C7239.39,-301.837 7240.31,-301.21 7241.37,-300.737C7242.44,-300.264 7243.62,-299.888 7244.92,-299.61C7247.76,-298.942 7249.93,-298.372 7251.42,-297.898C7252.9,-297.425 7253.65,-296.493 7253.65,-295.101C7253.65,-293.376 7252.45,-292.513 7250.06,-292.513C7249.02,-292.513 7248.23,-292.75 7247.68,-293.223C7247.13,-293.696 7246.73,-294.155 7246.47,-294.6C7246.21,-295.101 7245.84,-295.547 7245.35,-295.936C7244.87,-296.326 7244.27,-296.521 7243.56,-296.521L7239,-296.521ZM7155.85,-333.759L7150.12,-333.759C7149.28,-333.759 7148.58,-333.508 7148.03,-333.008C7147.48,-332.507 7147.21,-331.894 7147.21,-331.171L7147.21,-288.255C7147.21,-287.531 7147.5,-286.919 7148.08,-286.418C7148.66,-285.917 7149.38,-285.667 7150.22,-285.667L7155.94,-285.667C7156.78,-285.667 7157.48,-285.917 7158.03,-286.418C7158.58,-286.919 7158.85,-287.531 7158.85,-288.255L7158.85,-302.616L7165.64,-288.255C7165.97,-287.587 7166.32,-286.989 7166.71,-286.46C7167.1,-285.931 7167.71,-285.667 7168.56,-285.667L7176.7,-285.667C7177.55,-285.667 7178.08,-285.931 7178.31,-286.46C7178.53,-286.989 7178.48,-287.587 7178.16,-288.255L7169.33,-304.787L7176.51,-316.726C7176.9,-317.339 7176.96,-317.923 7176.7,-318.48C7176.45,-319.036 7175.9,-319.315 7175.06,-319.315L7167.29,-319.315C7166.45,-319.315 7165.84,-319.036 7165.45,-318.48C7165.06,-317.923 7164.71,-317.339 7164.38,-316.726L7158.85,-307.208L7158.85,-331.171C7158.85,-331.894 7158.56,-332.507 7157.98,-333.008C7157.4,-333.508 7156.69,-333.759 7155.85,-333.759ZM7282.66,-333.759L7276.94,-333.759C7276.09,-333.759 7275.4,-333.508 7274.85,-333.008C7274.3,-332.507 7274.02,-331.894 7274.02,-331.171L7274.02,-288.255C7274.02,-287.531 7274.32,-286.919 7274.9,-286.418C7275.48,-285.917 7276.19,-285.667 7277.03,-285.667L7282.76,-285.667C7283.6,-285.667 7284.29,-285.917 7284.84,-286.418C7285.39,-286.919 7285.67,-287.531 7285.67,-288.255L7285.67,-302.616L7292.46,-288.255C7292.78,-287.587 7293.14,-286.989 7293.53,-286.46C7293.91,-285.931 7294.53,-285.667 7295.37,-285.667L7303.52,-285.667C7304.36,-285.667 7304.9,-285.931 7305.12,-286.46C7305.35,-286.989 7305.3,-287.587 7304.98,-288.255L7296.15,-304.787L7303.33,-316.726C7303.71,-317.339 7303.78,-317.923 7303.52,-318.48C7303.26,-319.036 7302.71,-319.315 7301.87,-319.315L7294.11,-319.315C7293.27,-319.315 7292.65,-319.036 7292.27,-318.48C7291.88,-317.923 7291.52,-317.339 7291.2,-316.726L7285.67,-307.208L7285.67,-331.171C7285.67,-331.894 7285.38,-332.507 7284.79,-333.008C7284.21,-333.508 7283.5,-333.759 7282.66,-333.759Z" style="fill:rgb(5,13,64);"/>
                    </g>
                </g>
            </g>
        </g>
    </g>
</svg>
