<?xml version="1.0" encoding="UTF-8" standalone="no"?><!DOCTYPE svg PUBLIC "-//W3C//DTD SVG 1.1//EN" "http://www.w3.org/Graphics/SVG/1.1/DTD/svg11.dtd"><svg width="100%" height="100%" viewBox="0 0 1817 223" version="1.1" xmlns="http://www.w3.org/2000/svg" xmlns:xlink="http://www.w3.org/1999/xlink" xml:space="preserve" style="fill-rule:evenodd;clip-rule:evenodd;stroke-linejoin:round;stroke-miterlimit:1.41421;"><rect id="NavBrand" x="0.012" y="0.988" width="1816.12" height="222" style="fill:none;"/><g><g transform="matrix(0.893558,0,0,0.893558,-4479.79,64.6935)"><text x="5544.65px" y="125.923px" style="font-family:'Times-Roman', 'Times';font-size:181.526px;fill:none;">U<tspan x="5681.19px 5732.01px 5908.79px 6045.33px 6171.85px 6308.39px 6359.22px 6455.43px 6506.26px 6642.79px 6759.12px 6895.66px " y="125.923px 125.923px 125.923px 125.923px 125.923px 125.923px 125.923px 125.923px 125.923px 125.923px 125.923px 125.923px "> WORK 4 UTAH</tspan></text><text x="5544.65px" y="125.923px" style="font-family:'Times-Roman', 'Times';font-size:181.526px;fill:#fff;">U<tspan x="5681.19px 5732.01px 5908.79px 6045.33px 6171.85px 6308.39px 6359.22px 6455.43px 6506.26px 6642.79px 6759.12px 6895.66px " y="125.923px 125.923px 125.923px 125.923px 125.923px 125.923px 125.923px 125.923px 125.923px 125.923px 125.923px 125.923px "> WORK 4 UTAH</tspan></text></g><g><g><path d="M187.335,210.471l-24.237,-17.982l-24.237,17.982l-24.237,-17.982l-24.237,17.982l-24.237,-17.982l-24.237,17.982l21.892,-98.511c6.626,-28.4 -37.352,-30.029 -41.437,-8.6c-9.76,-0.665 -15.051,-20.211 -10.946,-27.365c4.039,-7.505 11.773,-16.868 34.401,-16.418c2.619,-6.965 7.505,-15.52 25.8,-15.637l49.256,0c16.334,0.117 29.364,8.672 35.964,37.528l30.492,129.003Zm-103.143,-150.755c0.41,0.98 0.636,2.057 0.636,3.186c0,4.568 -3.709,8.278 -8.278,8.278c-3.938,0 -7.238,-2.757 -8.074,-6.444l15.716,-5.02Z" style="fill:#c33;"/><rect x="143.348" y="105.97" width="240.79" height="25.132" style="fill:#c33;"/><rect x="143.348" y="157.263" width="240.79" height="25.132" style="fill:#c33;"/></g><g><path d="M180.361,77.871l-6.417,0c-4.166,0 -7.549,-3.383 -7.549,-7.549l0,-52.997c0,-4.166 3.383,-7.548 7.549,-7.548l197.322,0c4.167,0 7.549,3.382 7.549,7.548l0,52.997c0,4.166 -3.382,7.549 -7.549,7.549l-174.099,0c-1.47,10.169 -7.041,13.223 -11.399,14.7c-4.301,1.574 -14.962,-2.098 -14.691,-6.852c4.877,-0.296 8.137,-3.807 9.284,-7.848Zm14.947,-51.947l-4.542,0c-0.668,0 -1.232,0.198 -1.694,0.596c-0.462,0.397 -0.693,0.883 -0.693,1.457l0,6.294l-1.001,0c-0.667,0 -1.232,0.188 -1.693,0.563c-0.462,0.376 -0.693,0.851 -0.693,1.425l0,2.385c0,0.574 0.231,1.06 0.693,1.458c0.461,0.397 1.026,0.596 1.693,0.596l1.001,0l0,13.25c0,2.562 0.821,4.483 2.464,5.764c1.642,1.281 4.055,1.922 7.237,1.922l1.694,0c0.667,-0.001 1.232,-0.188 1.694,-0.564c0.462,-0.375 0.693,-0.85 0.693,-1.424l0,-2.385c0,-0.574 -0.219,-1.071 -0.655,-1.491c-0.436,-0.419 -1.014,-0.629 -1.732,-0.629c-0.821,0 -1.386,-0.21 -1.694,-0.63c-0.308,-0.419 -0.462,-0.872 -0.462,-1.358l0,-12.455l2.387,0c0.667,0 1.232,-0.188 1.694,-0.563c0.462,-0.376 0.693,-0.851 0.693,-1.425l0,-2.385c0,-0.574 -0.231,-1.06 -0.693,-1.457c-0.462,-0.398 -1.027,-0.597 -1.694,-0.597l-2.387,0l0,-6.294c0,-0.574 -0.218,-1.06 -0.654,-1.457c-0.436,-0.398 -0.988,-0.596 -1.656,-0.596Zm15.168,26.5c-0.668,0 -1.219,0.21 -1.656,0.63c-0.436,0.419 -0.654,0.894 -0.654,1.424c0,1.104 0.282,2.098 0.847,2.982c0.564,0.883 1.322,1.634 2.271,2.252c0.95,0.619 2.079,1.093 3.388,1.425c1.309,0.331 2.707,0.497 4.196,0.497c1.694,0 3.272,-0.133 4.735,-0.398c1.463,-0.265 2.746,-0.718 3.849,-1.358c1.104,-0.641 1.964,-1.513 2.579,-2.617c0.616,-1.104 0.924,-2.474 0.924,-4.108c0,-2.517 -0.539,-4.406 -1.616,-5.664c-1.078,-1.259 -3.029,-2.198 -5.852,-2.816c-2.515,-0.574 -4.196,-1.06 -5.043,-1.458c-0.847,-0.397 -1.27,-0.949 -1.27,-1.656c0,-0.618 0.167,-1.082 0.5,-1.391c0.334,-0.309 0.937,-0.464 1.81,-0.464c1.283,0 2.13,0.375 2.54,1.126c0.206,0.398 0.501,0.751 0.886,1.06c0.385,0.31 0.86,0.464 1.424,0.464l3.619,0c0.667,0 1.219,-0.21 1.655,-0.629c0.436,-0.42 0.654,-0.895 0.654,-1.425c0,-1.104 -0.282,-2.065 -0.846,-2.882c-0.565,-0.817 -1.335,-1.501 -2.31,-2.053c-0.975,-0.553 -2.117,-0.961 -3.426,-1.226c-1.309,-0.265 -2.708,-0.398 -4.196,-0.398c-1.643,0 -3.144,0.144 -4.504,0.431c-1.36,0.287 -2.541,0.751 -3.542,1.391c-1.001,0.641 -1.784,1.491 -2.348,2.551c-0.565,1.06 -0.847,2.385 -0.847,3.975c0,1.237 0.167,2.308 0.5,3.213c0.334,0.906 0.809,1.668 1.425,2.286c0.616,0.618 1.347,1.115 2.194,1.491c0.847,0.375 1.784,0.673 2.81,0.894c2.259,0.53 3.978,0.983 5.159,1.358c1.18,0.376 1.77,1.116 1.77,2.22c0,1.369 -0.949,2.054 -2.848,2.054c-0.822,0 -1.45,-0.188 -1.887,-0.564c-0.436,-0.375 -0.757,-0.739 -0.962,-1.093c-0.205,-0.397 -0.5,-0.751 -0.885,-1.06c-0.385,-0.309 -0.86,-0.464 -1.425,-0.464l-3.618,0Zm85.46,-26.5l-4.543,0c-0.667,0 -1.231,0.198 -1.693,0.596c-0.462,0.397 -0.693,0.883 -0.693,1.457l0,6.294l-1.001,0c-0.667,0 -1.232,0.188 -1.694,0.563c-0.462,0.376 -0.693,0.851 -0.693,1.425l0,2.385c0,0.574 0.231,1.06 0.693,1.458c0.462,0.397 1.027,0.596 1.694,0.596l1.001,0l0,13.25c0,2.562 0.821,4.483 2.463,5.764c1.643,1.281 4.055,1.922 7.238,1.922l1.693,0c0.668,-0.001 1.232,-0.188 1.694,-0.564c0.462,-0.375 0.693,-0.85 0.693,-1.424l0,-2.385c0,-0.574 -0.218,-1.071 -0.654,-1.491c-0.437,-0.419 -1.014,-0.629 -1.733,-0.629c-0.821,0 -1.385,-0.21 -1.693,-0.63c-0.308,-0.419 -0.462,-0.872 -0.462,-1.358l0,-12.455l2.386,0c0.668,0 1.232,-0.188 1.694,-0.563c0.462,-0.376 0.693,-0.851 0.693,-1.425l0,-2.385c0,-0.574 -0.231,-1.06 -0.693,-1.457c-0.462,-0.398 -1.026,-0.597 -1.694,-0.597l-2.386,0l0,-6.294c0,-0.574 -0.218,-1.06 -0.655,-1.457c-0.436,-0.398 -0.988,-0.596 -1.655,-0.596Zm15.167,26.5c-0.667,0.001 -1.219,0.21 -1.655,0.63c-0.436,0.419 -0.654,0.894 -0.654,1.424c0,1.104 0.282,2.098 0.846,2.982c0.565,0.883 1.322,1.634 2.272,2.252c0.949,0.619 2.078,1.093 3.387,1.425c1.309,0.331 2.708,0.497 4.196,0.497c1.694,0 3.272,-0.133 4.735,-0.398c1.463,-0.265 2.746,-0.718 3.85,-1.358c1.103,-0.641 1.963,-1.513 2.579,-2.617c0.616,-1.104 0.924,-2.474 0.924,-4.108c0,-2.517 -0.539,-4.406 -1.617,-5.664c-1.078,-1.259 -3.028,-2.198 -5.851,-2.816c-2.515,-0.574 -4.196,-1.06 -5.043,-1.458c-0.847,-0.397 -1.271,-0.949 -1.271,-1.656c0,-0.618 0.167,-1.082 0.501,-1.391c0.334,-0.309 0.937,-0.464 1.809,-0.464c1.283,0 2.13,0.375 2.541,1.126c0.205,0.398 0.5,0.751 0.885,1.06c0.385,0.31 0.86,0.464 1.425,0.464l3.618,0c0.668,0 1.219,-0.21 1.656,-0.629c0.436,-0.42 0.654,-0.895 0.654,-1.425c0,-1.104 -0.282,-2.065 -0.847,-2.882c-0.565,-0.817 -1.334,-1.501 -2.31,-2.053c-0.975,-0.553 -2.117,-0.961 -3.426,-1.226c-1.309,-0.265 -2.707,-0.398 -4.196,-0.398c-1.642,0 -3.144,0.144 -4.504,0.431c-1.36,0.287 -2.54,0.751 -3.541,1.391c-1.001,0.641 -1.784,1.491 -2.349,2.551c-0.564,1.06 -0.846,2.385 -0.846,3.975c0,1.237 0.166,2.308 0.5,3.213c0.334,0.906 0.808,1.668 1.424,2.286c0.616,0.618 1.348,1.115 2.195,1.491c0.846,0.375 1.783,0.673 2.81,0.894c2.258,0.53 3.978,0.983 5.158,1.358c1.181,0.376 1.771,1.116 1.771,2.22c0,1.369 -0.95,2.054 -2.849,2.054c-0.821,0 -1.45,-0.188 -1.886,-0.564c-0.436,-0.375 -0.757,-0.739 -0.962,-1.093c-0.206,-0.397 -0.501,-0.751 -0.886,-1.06c-0.385,-0.309 -0.859,-0.463 -1.424,-0.464l-3.619,0Zm-65.981,-29.548l-4.543,0c-0.667,0 -1.219,0.199 -1.655,0.596c-0.436,0.398 -0.654,0.884 -0.654,1.458l0,34.053c0,0.575 0.231,1.06 0.692,1.458c0.462,0.397 1.027,0.596 1.694,0.596l4.543,0c0.667,0 1.219,-0.199 1.655,-0.596c0.436,-0.398 0.654,-0.883 0.654,-1.458l0,-11.395l5.39,11.395c0.257,0.53 0.539,1.005 0.847,1.425c0.308,0.419 0.795,0.629 1.463,0.629l6.467,0c0.667,0 1.091,-0.21 1.27,-0.629c0.18,-0.42 0.141,-0.895 -0.115,-1.425l-7.006,-13.118l5.697,-9.474c0.308,-0.485 0.359,-0.949 0.154,-1.391c-0.205,-0.441 -0.642,-0.662 -1.309,-0.662l-6.159,0c-0.668,0 -1.155,0.221 -1.463,0.662c-0.308,0.442 -0.59,0.906 -0.847,1.391l-4.389,7.553l0,-19.014c0,-0.574 -0.23,-1.06 -0.692,-1.458c-0.462,-0.397 -1.027,-0.596 -1.694,-0.596Zm100.627,0l-4.542,0c-0.668,0 -1.219,0.199 -1.655,0.596c-0.437,0.398 -0.655,0.884 -0.655,1.458l0,34.053c0,0.575 0.231,1.06 0.693,1.458c0.462,0.397 1.027,0.596 1.694,0.596l4.542,0c0.668,0 1.219,-0.199 1.656,-0.596c0.436,-0.398 0.654,-0.883 0.654,-1.458l0,-11.395l5.389,11.395c0.257,0.53 0.539,1.005 0.847,1.425c0.308,0.419 0.796,0.629 1.463,0.629l6.467,0c0.668,0 1.091,-0.21 1.271,-0.629c0.179,-0.42 0.141,-0.895 -0.116,-1.425l-7.006,-13.118l5.697,-9.474c0.308,-0.485 0.36,-0.949 0.154,-1.391c-0.205,-0.442 -0.641,-0.662 -1.308,-0.662l-6.16,0c-0.667,0 -1.155,0.22 -1.463,0.662c-0.308,0.442 -0.59,0.906 -0.846,1.391l-4.389,7.553l0,-19.014c0,-0.574 -0.231,-1.06 -0.693,-1.458c-0.462,-0.397 -1.026,-0.596 -1.694,-0.596Z" style="fill:#fff;"/></g></g></g></svg>