<?xml version="1.0" encoding="UTF-8" standalone="no"?>
<!DOCTYPE svg PUBLIC "-//W3C//DTD SVG 1.1//EN" "http://www.w3.org/Graphics/SVG/1.1/DTD/svg11.dtd">
<svg width="100%" height="100%" viewBox="0 0 901 901" version="1.1" xmlns="http://www.w3.org/2000/svg" xmlns:xlink="http://www.w3.org/1999/xlink" xml:space="preserve" style="fill-rule:evenodd;clip-rule:evenodd;stroke-linejoin:round;stroke-miterlimit:1.41421;">
    <g transform="matrix(1,0,0,1,-677,-15)">
        <g id="GOPUSSR" transform="matrix(1.61783,0,0,1.49013,-418.869,-7.65201)">
            <rect x="677.973" y="15.612" width="556.302" height="603.974" style="fill:none;"/>
            <g transform="matrix(0.269973,0,0,0.293109,642.79,-253.586)">
                <g id="back" transform="matrix(3.42616,0,0,3.42616,148.96,1063.37)">
                    <path d="M25.557,181.244C25.559,217.708 26.808,220.645 48.107,220.581C69.176,220.516 485.025,220.076 485.331,220.08C501.606,220.282 505.954,216.326 505.876,188.51C505.473,42.935 413.172,9.928 264.088,10.864C136.305,11.666 25.547,40.414 25.557,181.244Z" style="fill:rgb(188,0,0);"/>
                </g>
                <g id="star1" transform="matrix(3.08122,0,0,3.08122,213.94,1083.29)">
                    <path d="M127.785,186.255L113.337,142.791L67.734,142.626L104.606,115.454L90.671,72.032L127.907,98.703L164.898,72.032L151.039,115.687L187.835,142.626L142.034,142.935L127.785,186.255Z" style="fill:rgb(252,209,22);"/>
                </g>
                <g id="star3" transform="matrix(3.08122,0,0,3.08122,1145.19,1083.29)">
                    <path d="M127.785,186.255L113.337,142.791L67.734,142.626L104.606,115.454L90.671,72.032L127.907,98.703L164.898,72.032L151.039,115.687L187.835,142.626L142.034,142.935L127.785,186.255Z" style="fill:rgb(252,209,22);"/>
                </g>
                <g id="trunk" transform="matrix(3.42616,0,0,3.42616,148.96,1063.37)">
                    <path d="M44.599,235.113C31.424,235.038 26.81,238.621 26.81,249.896C26.81,273.22 25.045,453.357 26.058,482.665C26.456,494.188 32.824,497.586 41.342,497.698C60.386,497.949 107.742,498.572 125.279,498.199C137.306,497.949 142.483,492.199 143.069,474.897C143.617,458.676 142.811,431.797 143.319,407.748C143.49,399.638 146.326,393.717 154.594,393.466C175.551,392.831 256.102,392.82 272.106,393.215C292.401,393.717 295.658,393.466 296.159,414.513C296.755,439.524 296.661,454.853 295.909,474.146C295.106,494.758 301.922,496.696 312.947,496.946C329.229,497.316 366.817,496.418 385.609,496.696C410.593,497.054 410.128,489.441 410.414,456.857C410.543,442.824 410.434,393.944 409.913,371.668C409.783,366.134 412.669,362.209 416.427,362.146C431.746,361.896 434.936,401.991 438.727,422.03C452.781,496.315 485.267,505.79 514.896,505.967C552.038,506.199 587.429,475.406 587.558,412.007C587.578,402.461 585.554,394.218 578.538,394.218C547.21,394.218 565.505,394.677 548.972,394.218C540.203,393.967 532.436,395.22 534.189,408.75C535.943,422.28 536.714,447.499 519.657,448.088C512.391,448.338 506.628,443.077 506.628,428.294C506.628,413.511 505.587,262.916 505.125,250.899C504.874,244.384 504.624,234.612 491.595,234.863C475.312,235.189 71.014,235.257 44.599,235.113Z" style="fill:rgb(188,0,0);"/>
                </g>
                <g transform="matrix(1.22412,0,0,1.22412,484.358,-1160.51)">
                    <g transform="matrix(3.32571,0,0,3.32571,129.499,1811.51)">
                        <path d="M71.978,57.956C167.421,43.439 147.008,166.482 77.241,122.02C78.101,120.841 77.543,121.458 78.452,120.246L74.552,116.459C74.123,116.647 73.439,117.068 72.84,117.481C72.03,116.639 70.698,115.624 69.943,114.631L65.338,118.437C65.902,119.197 67.478,120.794 68.082,121.492C64.974,124.109 57.192,130.87 56.065,132.502C51.26,138.5 60.313,146.218 64.789,141.299C66.547,139.909 71.28,132.507 74.427,127.925C82.449,136.361 93.377,142.251 108.079,141.984C111.368,141.924 130.625,141.137 142.939,120.474C151.947,105.355 149.355,82.651 133.215,66.976C115.685,49.949 89.472,51.272 71.978,57.956L71.978,57.956Z" style="fill:rgb(252,209,22);fill-rule:nonzero;"/>
                    </g>
                    <g transform="matrix(3.32571,0,0,3.32571,129.499,1811.51)">
                        <path d="M94.345,84.279L106.425,72.165L102.433,68.441L86.611,67.349L63.978,88.489L76.705,101.105L87.595,90.977C104.162,108.204 135.369,140.92 137.879,143.757C140.389,146.595 148.095,139.886 145.527,136.923C142.959,133.961 105.795,94.253 94.345,84.279L94.345,84.279Z" style="fill:rgb(252,209,22);fill-rule:nonzero;"/>
                    </g>
                </g>
            </g>
        </g>
    </g>
</svg>
