<?xml version="1.0" encoding="UTF-8" standalone="no"?>
<!DOCTYPE svg PUBLIC "-//W3C//DTD SVG 1.1//EN" "http://www.w3.org/Graphics/SVG/1.1/DTD/svg11.dtd">
<svg width="100%" height="100%" viewBox="0 0 901 451" version="1.1" xmlns="http://www.w3.org/2000/svg" xmlns:xlink="http://www.w3.org/1999/xlink" xml:space="preserve" style="fill-rule:evenodd;clip-rule:evenodd;stroke-linejoin:round;stroke-miterlimit:1.41421;">
    <g transform="matrix(1,0,0,1,-1659,-19)">
        <g id="Traitor.-blank" transform="matrix(0.914387,0,0,0.914838,142.07,1.63806)">
            <rect x="1659.45" y="19.235" width="984.266" height="491.891" style="fill:none;"/>
            <clipPath id="_clip1">
                <rect x="1659.45" y="19.235" width="984.266" height="491.891"/>
            </clipPath>
            <g clip-path="url(#_clip1)">
                <g transform="matrix(1,0,0,1,0,10.9309)">
                    <g transform="matrix(1.66208,0,0,1.81758,1650.66,-30.434)">
                        <rect x="0" y="0" width="600" height="300" style="fill:rgb(188,0,0);"/>
                    </g>
                    <g transform="matrix(1.66208,0,0,1.66126,1650.66,16.4621)">
                        <path d="M80.995,20.086L96.765,20.086L101.636,4.96L106.507,20.086L122.277,20.086L109.521,29.433L114.392,44.559L101.636,35.212L88.88,44.559L93.751,29.433L80.995,20.086Z" style="fill:rgb(252,209,22);fill-rule:nonzero;"/>
                    </g>
                    <g transform="matrix(1.66208,0,0,1.66126,1650.66,16.4621)">
                        <path d="M88.563,22.565L98.551,22.565L101.636,12.985L104.721,22.565L114.708,22.565L106.629,28.485L109.714,38.065L101.636,32.145L93.556,38.065L96.642,28.485L88.563,22.565Z" style="fill:rgb(188,0,0);fill-rule:nonzero;"/>
                    </g>
                    <g transform="matrix(1.66208,0,0,1.66126,1650.66,16.4621)">
                        <path d="M71.978,57.956C167.421,43.439 147.008,166.482 77.241,122.02C78.101,120.841 77.543,121.458 78.452,120.246L74.552,116.459C74.123,116.647 73.439,117.068 72.84,117.481C72.03,116.639 70.698,115.624 69.943,114.631L65.338,118.437C65.902,119.197 67.478,120.794 68.082,121.492C64.974,124.109 57.192,130.87 56.065,132.502C51.26,138.5 60.313,146.218 64.789,141.299C66.547,139.909 71.28,132.507 74.427,127.925C82.449,136.361 93.377,142.251 108.079,141.984C111.368,141.924 130.625,141.137 142.939,120.474C151.947,105.355 149.355,82.651 133.215,66.976C115.685,49.949 89.472,51.272 71.978,57.956L71.978,57.956Z" style="fill:rgb(252,209,22);fill-rule:nonzero;"/>
                    </g>
                    <g transform="matrix(1.66208,0,0,1.66126,1650.66,16.4621)">
                        <path d="M94.345,84.279L106.425,72.165L102.433,68.441L86.611,67.349L63.978,88.489L76.705,101.105L87.595,90.977C104.162,108.204 135.369,140.92 137.879,143.757C140.389,146.595 148.095,139.886 145.527,136.923C142.959,133.961 105.795,94.253 94.345,84.279L94.345,84.279Z" style="fill:rgb(252,209,22);fill-rule:nonzero;"/>
                    </g>
                </g>
                <g transform="matrix(0.705836,0,0,0.705489,1316.22,-110.55)">
                    <path d="M696.372,539.996L545.031,539.996C542.004,539.996 539.356,542.644 539.356,545.671L539.356,590.317C539.356,593.343 542.004,595.614 545.031,595.614L593.082,595.614L593.082,799.167C593.46,801.815 595.73,803.707 598.379,803.707L643.024,803.707C645.673,803.707 647.943,801.815 648.321,799.167L648.321,595.614L696.372,595.614C699.399,595.614 702.047,593.343 702.047,590.317L702.047,545.671C702.047,542.644 699.399,539.996 696.372,539.996Z" style="fill-rule:nonzero;"/>
                    <path d="M896.52,575.183C896.52,575.183 897.276,569.129 892.736,564.589L871.17,543.023C866.63,538.483 861.333,539.239 861.333,539.239L741.017,539.239C738.369,539.239 735.72,541.509 735.72,544.536L735.72,798.41C735.72,801.058 738.369,803.707 741.017,803.707L786.041,803.707C789.068,803.707 791.338,801.058 791.338,798.41L791.338,706.471L808.742,706.471L845.821,798.41C846.956,801.058 849.604,803.707 852.631,803.707L903.33,803.707C905.978,803.707 909.384,801.058 908.627,798.41L870.035,703.444L871.17,702.687L892.736,681.121C897.276,676.581 896.52,671.284 896.52,671.284L896.52,575.183ZM791.338,594.857L830.686,594.857C830.686,594.857 832.2,594.479 833.713,595.992L839.767,602.046C841.28,603.559 840.902,605.072 840.902,605.072L840.902,640.637C840.902,640.637 841.28,642.151 839.767,643.664L833.713,649.718C832.578,650.853 831.443,650.853 831.065,650.853L791.338,650.853L791.338,594.857Z" style="fill-rule:nonzero;"/>
                    <path d="M1053.91,544.914L1053.91,544.536C1052.78,541.131 1051.27,539.239 1048.62,539.239L1031.97,539.239L1020.24,539.239L1003.59,539.239C1000.95,539.239 999.81,541.131 998.296,544.536L998.296,544.914L923.383,798.41C922.626,801.058 926.031,803.707 929.058,803.707L972.19,803.707C975.217,803.707 977.865,801.058 979,798.41L988.081,767.763L1064.13,767.763L1073.21,798.41C1074.35,801.058 1076.99,803.707 1080.02,803.707L1123.15,803.707C1126.18,803.707 1129.58,801.058 1128.83,798.41C1103.86,714.038 1078.88,629.287 1053.91,544.914ZM1003.22,716.686L1026.29,639.124L1049,716.686L1003.22,716.686Z" style="fill-rule:nonzero;"/>
                    <path d="M1213.96,540.374L1168.93,540.374C1165.91,540.374 1163.64,542.644 1163.64,545.671L1163.64,798.41C1163.64,801.437 1165.91,803.707 1168.93,803.707L1213.96,803.707C1216.98,803.707 1219.25,801.437 1219.25,798.41L1219.25,545.671C1219.25,542.644 1216.98,540.374 1213.96,540.374Z" style="fill-rule:nonzero;"/>
                    <path d="M1408.81,539.996L1257.47,539.996C1254.44,539.996 1251.79,542.644 1251.79,545.671L1251.79,590.317C1251.79,593.343 1254.44,595.614 1257.47,595.614L1305.52,595.614L1305.52,799.167C1305.9,801.815 1308.17,803.707 1310.81,803.707L1355.46,803.707C1358.11,803.707 1360.38,801.815 1360.76,799.167L1360.76,595.614L1408.81,595.614C1411.83,595.614 1414.48,593.343 1414.48,590.317L1414.48,545.671C1414.48,542.644 1411.83,539.996 1408.81,539.996Z" style="fill-rule:nonzero;"/>
                    <path d="M1615.77,574.426C1615.77,574.426 1616.52,569.129 1611.98,564.589L1590.42,543.401C1585.88,538.483 1580.58,539.239 1580.58,539.239L1482.96,539.239C1482.96,539.239 1477.67,538.483 1473.13,543.401L1451.94,564.589C1447.4,569.129 1447.78,574.426 1447.78,574.426L1447.78,768.52C1447.78,768.52 1447.4,773.817 1451.94,778.357L1473.13,799.545C1477.67,804.085 1482.96,803.707 1482.96,803.707L1580.96,803.707C1580.96,803.707 1585.88,804.085 1590.42,799.545L1611.98,778.357C1616.52,773.817 1615.77,768.52 1615.77,768.52L1615.77,574.426ZM1550.31,594.857C1550.69,594.857 1551.82,594.857 1552.96,595.992L1559.01,602.046C1560.53,603.559 1560.15,605.072 1560.15,605.072L1560.15,740.144C1560.15,740.9 1560.15,741.657 1559.01,742.792L1553.72,748.089L1509.83,748.089L1504.53,742.792C1503.77,741.657 1503.39,740.9 1503.39,740.144L1503.39,605.072C1503.39,605.072 1503.39,603.559 1504.53,602.046L1510.96,595.992C1511.72,594.857 1512.85,594.857 1513.23,594.857L1550.31,594.857Z" style="fill-rule:nonzero;"/>
                    <path d="M1823.86,575.183C1823.86,575.183 1824.62,569.129 1820.08,564.589L1798.51,543.023C1793.97,538.483 1788.67,539.239 1788.67,539.239L1668.36,539.239C1665.71,539.239 1663.06,541.509 1663.06,544.536L1663.06,798.41C1663.06,801.058 1665.71,803.707 1668.36,803.707L1713.38,803.707C1716.41,803.707 1718.68,801.058 1718.68,798.41L1718.68,706.471L1736.08,706.471L1773.16,798.41C1774.3,801.058 1776.94,803.707 1779.97,803.707L1830.67,803.707C1833.32,803.707 1836.72,801.058 1835.97,798.41L1797.37,703.444L1798.51,702.687L1820.08,681.121C1824.62,676.581 1823.86,671.284 1823.86,671.284L1823.86,575.183ZM1718.68,594.857L1758.03,594.857C1758.03,594.857 1759.54,594.479 1761.05,595.992L1767.11,602.046C1768.62,603.559 1768.24,605.072 1768.24,605.072L1768.24,640.637C1768.24,640.637 1768.62,642.151 1767.11,643.664L1761.05,649.718C1759.92,650.853 1758.78,650.853 1758.4,650.853L1718.68,650.853L1718.68,594.857Z" style="fill-rule:nonzero;"/>
                </g>
            </g>
        </g>
    </g>
</svg>
